<?xml version="1.0" encoding="UTF-8" standalone="no"?>
<!DOCTYPE svg PUBLIC "-//W3C//DTD SVG 1.1//EN"
 "http://www.w3.org/Graphics/SVG/1.1/DTD/svg11.dtd">
<!-- Generated by graphviz version 15.0.0 (0)
 -->
<!-- Title: Dependency Graph Pages: 1 -->
<svg width="1107pt" height="433pt"
 viewBox="0.00 0.00 1107.00 433.00" xmlns="http://www.w3.org/2000/svg" xmlns:xlink="http://www.w3.org/1999/xlink">
<g id="graph0" class="graph" transform="scale(1 1) rotate(0) translate(4 429.32)">
<title>Dependency Graph</title>
<polygon fill="white" stroke="none" points="-4,4 -4,-429.32 1102.73,-429.32 1102.73,4 -4,4"/>
<!-- Directory/11/backend/server.js -->
<g id="node1" class="node">
<title>Directory/11/backend/server.js</title>
<path fill="#4f46e5" stroke="#4f46e5" stroke-width="2" d="M93.82,-254.8C93.82,-254.8 12,-254.8 12,-254.8 6,-254.8 0,-248.8 0,-242.8 0,-242.8 0,-225.2 0,-225.2 0,-219.2 6,-213.2 12,-213.2 12,-213.2 93.82,-213.2 93.82,-213.2 99.82,-213.2 105.82,-219.2 105.82,-225.2 105.82,-225.2 105.82,-242.8 105.82,-242.8 105.82,-248.8 99.82,-254.8 93.82,-254.8"/>
<text xml:space="preserve" text-anchor="middle" x="52.91" y="-238.2" font-family="Segoe UI, Arial" font-size="14.00" fill="#ffffff">⭐ server.js</text>
<text xml:space="preserve" text-anchor="middle" x="52.91" y="-221.4" font-family="Segoe UI, Arial" font-size="14.00" fill="#ffffff">(входной файл)</text>
</g>
<!-- Directory/11/backend/config/index.js -->
<g id="node2" class="node">
<title>Directory/11/backend/config/index.js</title>
<path fill="#fef2f2" stroke="#ef4444" stroke-width="1.5" d="M1086.73,-216C1086.73,-216 885.18,-216 885.18,-216 879.18,-216 873.18,-210 873.18,-204 873.18,-204 873.18,-192 873.18,-192 873.18,-186 879.18,-180 885.18,-180 885.18,-180 1086.73,-180 1086.73,-180 1092.73,-180 1098.73,-186 1098.73,-192 1098.73,-192 1098.73,-204 1098.73,-204 1098.73,-210 1092.73,-216 1086.73,-216"/>
<text xml:space="preserve" text-anchor="middle" x="985.95" y="-193.8" font-family="Segoe UI, Arial" font-size="14.00" fill="#991b1b">Directory/11/backend/config/index.js</text>
</g>
<!-- Directory/11/backend/server.js&#45;&gt;Directory/11/backend/config/index.js -->
<g id="edge1" class="edge">
<title>Directory/11/backend/server.js&#45;&gt;Directory/11/backend/config/index.js</title>
<path fill="none" stroke="#f59e0b" stroke-width="1.5" d="M66.66,-255.59C83.5,-281.73 115.88,-324.46 156.82,-342 428.64,-458.45 545.64,-446.76 822.18,-342 883.46,-318.79 936.51,-260.79 964.29,-225.9"/>
<polygon fill="#f59e0b" stroke="#f59e0b" stroke-width="1.5" points="970.32,-218.16 967.72,-228.81 968.57,-220.81 964.37,-226.2 964.17,-226.05 963.98,-225.89 968.17,-220.51 960.62,-223.28 970.32,-218.16"/>
</g>
<!-- Directory/11/backend/routes/tasks.js -->
<g id="node3" class="node">
<title>Directory/11/backend/routes/tasks.js</title>
<path fill="#f3f4f6" stroke="#4f46e5" d="M401.85,-324C401.85,-324 204.96,-324 204.96,-324 198.96,-324 192.96,-318 192.96,-312 192.96,-312 192.96,-300 192.96,-300 192.96,-294 198.96,-288 204.96,-288 204.96,-288 401.85,-288 401.85,-288 407.85,-288 413.85,-294 413.85,-300 413.85,-300 413.85,-312 413.85,-312 413.85,-318 407.85,-324 401.85,-324"/>
<text xml:space="preserve" text-anchor="middle" x="303.4" y="-301.8" font-family="Segoe UI, Arial" font-size="14.00" fill="#1f2937">Directory/11/backend/routes/tasks.js</text>
</g>
<!-- Directory/11/backend/server.js&#45;&gt;Directory/11/backend/routes/tasks.js -->
<g id="edge2" class="edge">
<title>Directory/11/backend/server.js&#45;&gt;Directory/11/backend/routes/tasks.js</title>
<path fill="none" stroke="#9ca3af" d="M106.75,-253.63C114.79,-256.51 123.01,-259.38 130.82,-262 156.19,-270.51 184.14,-278.32 209.98,-284.92"/>
<polygon fill="#9ca3af" stroke="#9ca3af" points="219.34,-287.28 208.55,-289.2 215.67,-286.36 209.65,-284.84 209.65,-284.84 209.65,-284.84 215.67,-286.36 210.74,-280.48 219.34,-287.28"/>
</g>
<!-- Directory/11/backend/routes/pending.js -->
<g id="node4" class="node">
<title>Directory/11/backend/routes/pending.js</title>
<path fill="#f3f4f6" stroke="#4f46e5" d="M410.4,-252C410.4,-252 196.4,-252 196.4,-252 190.4,-252 184.4,-246 184.4,-240 184.4,-240 184.4,-228 184.4,-228 184.4,-222 190.4,-216 196.4,-216 196.4,-216 410.4,-216 410.4,-216 416.4,-216 422.4,-222 422.4,-228 422.4,-228 422.4,-240 422.4,-240 422.4,-246 416.4,-252 410.4,-252"/>
<text xml:space="preserve" text-anchor="middle" x="303.4" y="-229.8" font-family="Segoe UI, Arial" font-size="14.00" fill="#1f2937">Directory/11/backend/routes/pending.js</text>
</g>
<!-- Directory/11/backend/server.js&#45;&gt;Directory/11/backend/routes/pending.js -->
<g id="edge3" class="edge">
<title>Directory/11/backend/server.js&#45;&gt;Directory/11/backend/routes/pending.js</title>
<path fill="none" stroke="#9ca3af" d="M106.61,-234C126.23,-234 149.45,-234 172.93,-234"/>
<polygon fill="#9ca3af" stroke="#9ca3af" points="182.87,-234 172.87,-238.5 179.09,-234 172.87,-234 172.87,-234 172.87,-234 179.09,-234 172.87,-229.5 182.87,-234"/>
</g>
<!-- Directory/11/backend/services/analyzerService.js -->
<g id="node5" class="node">
<title>Directory/11/backend/services/analyzerService.js</title>
<path fill="#f3f4f6" stroke="#4f46e5" d="M437.98,-144C437.98,-144 168.82,-144 168.82,-144 162.82,-144 156.82,-138 156.82,-132 156.82,-132 156.82,-120 156.82,-120 156.82,-114 162.82,-108 168.82,-108 168.82,-108 437.98,-108 437.98,-108 443.98,-108 449.98,-114 449.98,-120 449.98,-120 449.98,-132 449.98,-132 449.98,-138 443.98,-144 437.98,-144"/>
<text xml:space="preserve" text-anchor="middle" x="303.4" y="-121.8" font-family="Segoe UI, Arial" font-size="14.00" fill="#1f2937">Directory/11/backend/services/analyzerService.js</text>
</g>
<!-- Directory/11/backend/server.js&#45;&gt;Directory/11/backend/services/analyzerService.js -->
<g id="edge4" class="edge">
<title>Directory/11/backend/server.js&#45;&gt;Directory/11/backend/services/analyzerService.js</title>
<path fill="none" stroke="#9ca3af" d="M103.9,-212.27C146.19,-193.89 206.61,-167.63 249.66,-148.92"/>
<polygon fill="#9ca3af" stroke="#9ca3af" points="258.82,-144.94 251.44,-153.05 255.35,-146.45 249.65,-148.93 249.65,-148.93 249.65,-148.93 255.35,-146.45 247.86,-144.8 258.82,-144.94"/>
</g>
<!-- Directory/11/backend/database/db.js -->
<g id="node6" class="node">
<title>Directory/11/backend/database/db.js</title>
<path fill="#f3f4f6" stroke="#4f46e5" d="M760.02,-36C760.02,-36 563.14,-36 563.14,-36 557.14,-36 551.14,-30 551.14,-24 551.14,-24 551.14,-12 551.14,-12 551.14,-6 557.14,0 563.14,0 563.14,0 760.02,0 760.02,0 766.02,0 772.02,-6 772.02,-12 772.02,-12 772.02,-24 772.02,-24 772.02,-30 766.02,-36 760.02,-36"/>
<text xml:space="preserve" text-anchor="middle" x="661.58" y="-13.8" font-family="Segoe UI, Arial" font-size="14.00" fill="#1f2937">Directory/11/backend/database/db.js</text>
</g>
<!-- Directory/11/backend/server.js&#45;&gt;Directory/11/backend/database/db.js -->
<g id="edge5" class="edge">
<title>Directory/11/backend/server.js&#45;&gt;Directory/11/backend/database/db.js</title>
<path fill="none" stroke="#9ca3af" d="M62.64,-212.41C77.01,-179.91 108.9,-119.13 156.82,-90 273.15,-19.3 431.94,-7.62 539.94,-9.53"/>
<polygon fill="#9ca3af" stroke="#9ca3af" points="549.66,-9.75 539.56,-14.02 545.88,-9.66 539.66,-9.52 539.66,-9.52 539.66,-9.52 545.88,-9.66 539.76,-5.03 549.66,-9.75"/>
</g>
<!-- Directory/11/backend/config/index.js&#45;&gt;Directory/11/backend/config/index.js -->
<g id="edge6" class="edge">
<title>Directory/11/backend/config/index.js&#45;&gt;Directory/11/backend/config/index.js</title>
<path fill="none" stroke="#ef4444" stroke-width="2.5" stroke-dasharray="5,2" d="M964.81,-216.54C954.19,-233.6 961.24,-252 985.95,-252 1004.87,-252 1013.44,-241.22 1011.65,-228.5"/>
<polygon fill="#ef4444" stroke="#ef4444" stroke-width="2.5" points="1008.18,-219.38 1015.94,-227.13 1009.57,-220.94 1012.43,-228.46 1011.73,-228.73 1011.03,-229 1008.17,-221.48 1007.53,-230.33 1008.18,-219.38"/>
<text xml:space="preserve" text-anchor="middle" x="985.95" y="-254.7" font-family="Segoe UI" font-size="9.00" fill="#ef4444"> &#160;цикл</text>
</g>
<!-- Directory/11/backend/controllers/taskController.js -->
<g id="node7" class="node">
<title>Directory/11/backend/controllers/taskController.js</title>
<path fill="#f3f4f6" stroke="#4f46e5" d="M798.9,-324C798.9,-324 524.26,-324 524.26,-324 518.26,-324 512.26,-318 512.26,-312 512.26,-312 512.26,-300 512.26,-300 512.26,-294 518.26,-288 524.26,-288 524.26,-288 798.9,-288 798.9,-288 804.9,-288 810.9,-294 810.9,-300 810.9,-300 810.9,-312 810.9,-312 810.9,-318 804.9,-324 798.9,-324"/>
<text xml:space="preserve" text-anchor="middle" x="661.58" y="-301.8" font-family="Segoe UI, Arial" font-size="14.00" fill="#1f2937">Directory/11/backend/controllers/taskController.js</text>
</g>
<!-- Directory/11/backend/routes/tasks.js&#45;&gt;Directory/11/backend/controllers/taskController.js -->
<g id="edge7" class="edge">
<title>Directory/11/backend/routes/tasks.js&#45;&gt;Directory/11/backend/controllers/taskController.js</title>
<path fill="none" stroke="#9ca3af" d="M414.17,-306C441.54,-306 471.45,-306 500.69,-306"/>
<polygon fill="#9ca3af" stroke="#9ca3af" points="510.64,-306 500.64,-310.5 506.86,-306 500.64,-306 500.64,-306 500.64,-306 506.86,-306 500.64,-301.5 510.64,-306"/>
</g>
<!-- Directory/11/backend/controllers/pendingController.js -->
<g id="node8" class="node">
<title>Directory/11/backend/controllers/pendingController.js</title>
<path fill="#f3f4f6" stroke="#4f46e5" d="M810.18,-252C810.18,-252 512.98,-252 512.98,-252 506.98,-252 500.98,-246 500.98,-240 500.98,-240 500.98,-228 500.98,-228 500.98,-222 506.98,-216 512.98,-216 512.98,-216 810.18,-216 810.18,-216 816.18,-216 822.18,-222 822.18,-228 822.18,-228 822.18,-240 822.18,-240 822.18,-246 816.18,-252 810.18,-252"/>
<text xml:space="preserve" text-anchor="middle" x="661.58" y="-229.8" font-family="Segoe UI, Arial" font-size="14.00" fill="#1f2937">Directory/11/backend/controllers/pendingController.js</text>
</g>
<!-- Directory/11/backend/routes/pending.js&#45;&gt;Directory/11/backend/controllers/pendingController.js -->
<g id="edge8" class="edge">
<title>Directory/11/backend/routes/pending.js&#45;&gt;Directory/11/backend/controllers/pendingController.js</title>
<path fill="none" stroke="#9ca3af" d="M422.51,-234C444,-234 466.81,-234 489.47,-234"/>
<polygon fill="#9ca3af" stroke="#9ca3af" points="499.36,-234 489.36,-238.5 495.58,-234 489.36,-234 489.36,-234 489.36,-234 495.58,-234 489.36,-229.5 499.36,-234"/>
</g>
<!-- Directory/11/backend/services/analyzerService.js&#45;&gt;Directory/11/backend/database/db.js -->
<g id="edge11" class="edge">
<title>Directory/11/backend/services/analyzerService.js&#45;&gt;Directory/11/backend/database/db.js</title>
<path fill="none" stroke="#9ca3af" d="M349.52,-107.58C389.01,-91.92 448.16,-69.56 500.98,-54 519.4,-48.57 539.22,-43.5 558.42,-38.98"/>
<polygon fill="#9ca3af" stroke="#9ca3af" points="568.14,-36.73 559.41,-43.37 564.45,-37.58 558.4,-38.98 558.4,-38.98 558.4,-38.98 564.45,-37.58 557.38,-34.6 568.14,-36.73"/>
</g>
<!-- Directory/11/backend/models/Task.js -->
<g id="node9" class="node">
<title>Directory/11/backend/models/Task.js</title>
<path fill="#f3f4f6" stroke="#4f46e5" d="M762.75,-108C762.75,-108 560.41,-108 560.41,-108 554.41,-108 548.41,-102 548.41,-96 548.41,-96 548.41,-84 548.41,-84 548.41,-78 554.41,-72 560.41,-72 560.41,-72 762.75,-72 762.75,-72 768.75,-72 774.75,-78 774.75,-84 774.75,-84 774.75,-96 774.75,-96 774.75,-102 768.75,-108 762.75,-108"/>
<text xml:space="preserve" text-anchor="middle" x="661.58" y="-85.8" font-family="Segoe UI, Arial" font-size="14.00" fill="#1f2937">Directory/11/backend/models/Task.js</text>
</g>
<!-- Directory/11/backend/services/analyzerService.js&#45;&gt;Directory/11/backend/models/Task.js -->
<g id="edge9" class="edge">
<title>Directory/11/backend/services/analyzerService.js&#45;&gt;Directory/11/backend/models/Task.js</title>
<path fill="none" stroke="#9ca3af" d="M450.3,-111.25C479.13,-108.34 509.13,-105.31 537.13,-102.48"/>
<polygon fill="#9ca3af" stroke="#9ca3af" points="546.96,-101.48 537.46,-106.97 543.19,-101.86 537.01,-102.49 537.01,-102.49 537.01,-102.49 543.19,-101.86 536.55,-98.01 546.96,-101.48"/>
</g>
<!-- Directory/11/backend/models/PendingAction.js -->
<g id="node10" class="node">
<title>Directory/11/backend/models/PendingAction.js</title>
<path fill="#f3f4f6" stroke="#4f46e5" d="M791.14,-180C791.14,-180 532.02,-180 532.02,-180 526.02,-180 520.02,-174 520.02,-168 520.02,-168 520.02,-156 520.02,-156 520.02,-150 526.02,-144 532.02,-144 532.02,-144 791.14,-144 791.14,-144 797.14,-144 803.14,-150 803.14,-156 803.14,-156 803.14,-168 803.14,-168 803.14,-174 797.14,-180 791.14,-180"/>
<text xml:space="preserve" text-anchor="middle" x="661.58" y="-157.8" font-family="Segoe UI, Arial" font-size="14.00" fill="#1f2937">Directory/11/backend/models/PendingAction.js</text>
</g>
<!-- Directory/11/backend/services/analyzerService.js&#45;&gt;Directory/11/backend/models/PendingAction.js -->
<g id="edge10" class="edge">
<title>Directory/11/backend/services/analyzerService.js&#45;&gt;Directory/11/backend/models/PendingAction.js</title>
<path fill="none" stroke="#9ca3af" d="M450.3,-140.75C469.58,-142.7 489.38,-144.7 508.76,-146.66"/>
<polygon fill="#9ca3af" stroke="#9ca3af" points="518.58,-147.65 508.18,-151.12 514.82,-147.27 508.63,-146.64 508.63,-146.64 508.63,-146.64 514.82,-147.27 509.08,-142.16 518.58,-147.65"/>
</g>
<!-- Directory/11/backend/database/db.js&#45;&gt;Directory/11/backend/config/index.js -->
<g id="edge12" class="edge">
<title>Directory/11/backend/database/db.js&#45;&gt;Directory/11/backend/config/index.js</title>
<path fill="none" stroke="#f59e0b" stroke-width="1.5" d="M772.46,-35.1C789.62,-39.93 806.75,-46.11 822.18,-54 879.59,-83.38 932.9,-137.73 961.99,-170.6"/>
<polygon fill="#f59e0b" stroke="#f59e0b" stroke-width="1.5" points="968.34,-177.88 958.38,-173.3 966.07,-175.66 961.58,-170.51 961.77,-170.34 961.96,-170.18 966.44,-175.33 965.16,-167.39 968.34,-177.88"/>
</g>
</g>
</svg>
