<svg width="233" height="70" viewBox="0 0 233 70" fill="none" xmlns="http://www.w3.org/2000/svg">
<path d="M78.798 50.379C78.798 48.9705 77.7339 47.9903 76.3713 47.9903C74.9855 47.9903 73.9294 49.0165 73.9294 50.425C73.9294 51.8487 75.0088 52.829 76.3713 52.829C77.7492 52.829 78.798 51.7948 78.798 50.379ZM79.3647 50.379C79.3647 52.0785 78.0482 53.3418 76.364 53.3418C74.6952 53.3418 73.3633 52.1244 73.3633 50.425C73.3633 48.7255 74.6798 47.4775 76.364 47.4775C78.0555 47.4775 79.3647 48.6949 79.3647 50.379Z" fill="#000A14"/>
<path d="M85.452 50.379C85.452 48.9705 84.3878 47.9903 83.0253 47.9903C81.6395 47.9903 80.5833 49.0165 80.5833 50.425C80.5833 51.8487 81.6628 52.829 83.0253 52.829C84.4031 52.829 85.452 51.7948 85.452 50.379ZM86.0187 50.379C86.0187 52.0785 84.7021 53.3418 83.0173 53.3418C81.3485 53.3418 80.0166 52.1244 80.0166 50.425C80.0166 48.7255 81.3332 47.4775 83.0173 47.4775C84.7094 47.4775 86.0187 48.6949 86.0187 50.379Z" fill="#000A14"/>
<path d="M92.1053 50.379C92.1053 48.9705 91.0411 47.9903 89.6786 47.9903C88.2928 47.9903 87.2366 49.0165 87.2366 50.425C87.2366 51.8487 88.3161 52.829 89.6786 52.829C91.0564 52.829 92.1053 51.7948 92.1053 50.379ZM92.672 50.379C92.672 52.0785 91.3554 53.3418 89.6706 53.3418C88.0018 53.3418 86.6699 52.1244 86.6699 50.425C86.6699 48.7255 87.9865 47.4775 89.6706 47.4775C91.3628 47.4775 92.672 48.6949 92.672 50.379Z" fill="#000A14"/>
<path d="M97.7339 52.2246L97.2897 52.4697L96.4247 50.9387L97.2977 49.4077L97.7418 49.6528L97.0146 50.9387L97.7339 52.2246ZM96.402 52.2246L95.9578 52.4697L95.0928 50.9387L95.9652 49.4077L96.4093 49.6528L95.6821 50.9387L96.402 52.2246Z" fill="#000A14"/>
<path d="M101.975 50.8304L100.888 48.2353L99.7856 50.8304H101.975ZM100.573 47.5767H101.201L103.628 53.2418H103.015L102.196 51.3432H99.5626L98.7435 53.2418H98.1309L100.573 47.5767Z" fill="#000A14"/>
<path d="M109.004 53.2418H108.384L106.401 48.2892L104.403 53.2418H103.783L106.133 47.5767H106.669L109.004 53.2418Z" fill="#000A14"/>
<path d="M110.206 52.729H111.516C112.503 52.729 112.74 52.0171 112.74 51.5803C112.74 51.1441 112.503 50.4322 111.516 50.4322H110.206V52.729ZM110.206 47.5767V49.9194H111.508C112.656 49.9194 113.307 50.57 113.307 51.5809C113.307 52.5685 112.58 53.2424 111.508 53.2424H109.64V47.5773H110.206V47.5767Z" fill="#000A14"/>
<path d="M116.937 52.2162C118.154 52.2242 118.905 51.3438 118.905 50.2796C118.905 49.2155 118.154 48.3351 116.937 48.3425V52.2162ZM116.371 48.3425C115.153 48.3351 114.403 49.2149 114.403 50.2796C114.403 51.3438 115.153 52.2242 116.371 52.2162V48.3425ZM116.371 52.729C114.908 52.721 113.837 51.6875 113.837 50.279C113.837 48.87 114.908 47.837 116.371 47.8291V47.1172H116.938V47.8291C118.4 47.8364 119.471 48.87 119.471 50.279C119.471 51.6875 118.4 52.721 116.938 52.729V53.5248H116.371V52.729Z" fill="#000A14"/>
<path d="M123.399 50.8304L122.312 48.2353L121.21 50.8304H123.399ZM121.998 47.5767H122.626L125.053 53.2418H124.44L123.621 51.3432H120.987L120.168 53.2418H119.556L121.998 47.5767Z" fill="#000A14"/>
<path d="M127.451 50.6851H125.368V51.1978H127.451V50.6851Z" fill="#000A14"/>
<path d="M128.812 47.5767V52.438L132.181 47.5767H132.778V53.2418H132.212V48.3804L128.843 53.2418H128.246V47.5767H128.812Z" fill="#000A14"/>
<path d="M133.912 47.5767H134.479V50.0726H137.441V47.5767H138.008V53.2418H137.441V50.5853H134.479V53.2418H133.912V47.5767Z" fill="#000A14"/>
<path d="M139.923 48.0894H138.629V47.5767H141.783V48.0894H140.489V53.2418H139.923V48.0894Z" fill="#000A14"/>
<path d="M142.404 47.5767H145.512V48.0894H142.97V50.1338H145.428V50.6466H142.97V52.729H145.512V53.2418H142.404V47.5767Z" fill="#000A14"/>
<path d="M146.508 47.5767H149.409V48.0894H147.075V53.2418H146.508V47.5767Z" fill="#000A14"/>
<path d="M150.596 50.4555H151.829C152.839 50.4555 153.206 49.8661 153.206 49.2761C153.206 48.6715 152.839 48.0894 151.829 48.0894H150.596V50.4555ZM150.029 47.5767H151.821C153.482 47.5767 153.773 48.6329 153.773 49.2761C153.773 50.1179 153.252 50.9682 151.821 50.9682H150.596V53.2418H150.029V47.5767Z" fill="#000A14"/>
<path d="M157.204 50.8304L156.117 48.2353L155.014 50.8304H157.204ZM155.803 47.5767H156.431L158.858 53.2418H158.245L157.426 51.3432H154.792L153.973 53.2418H153.36L155.803 47.5767Z" fill="#000A14"/>
<path d="M159.754 48.0894H158.46V47.5767H161.614V48.0894H160.321V53.2418H159.754V48.0894Z" fill="#000A14"/>
<path d="M166.889 50.379C166.889 48.9705 165.825 47.9903 164.463 47.9903C163.077 47.9903 162.021 49.0165 162.021 50.425C162.021 51.8487 163.1 52.829 164.463 52.829C165.841 52.829 166.889 51.7948 166.889 50.379ZM167.456 50.379C167.456 52.0785 166.14 53.3418 164.455 53.3418C162.787 53.3418 161.454 52.1244 161.454 50.425C161.454 48.7255 162.771 47.4775 164.455 47.4775C166.147 47.4775 167.456 48.6949 167.456 50.379Z" fill="#000A14"/>
<path d="M168.919 50.4555H170.152C171.162 50.4555 171.53 49.8661 171.53 49.2761C171.53 48.6715 171.162 48.0894 170.152 48.0894H168.919V50.4555ZM168.353 47.5767H170.144C171.805 47.5767 172.096 48.6329 172.096 49.2761C172.096 50.1179 171.576 50.9682 170.144 50.9682H168.919V53.2418H168.353V47.5767Z" fill="#000A14"/>
<path d="M174.631 50.6851H172.549V51.1978H174.631V50.6851Z" fill="#000A14"/>
<path d="M175.994 47.5767V52.438L179.363 47.5767H179.96V53.2418H179.393V48.3804L176.025 53.2418H175.428V47.5767H175.994Z" fill="#000A14"/>
<path d="M181.094 47.5767H181.66V50.0726H184.623V47.5767H185.189V53.2418H184.623V50.5853H181.66V53.2418H181.094V47.5767Z" fill="#000A14"/>
<path d="M189.178 52.2162C190.395 52.2242 191.145 51.3438 191.145 50.2796C191.145 49.2155 190.395 48.3351 189.178 48.3425V52.2162ZM188.612 48.3425C187.395 48.3351 186.644 49.2149 186.644 50.2796C186.644 51.3438 187.395 52.2242 188.612 52.2162V48.3425ZM188.612 52.729C187.15 52.721 186.078 51.6875 186.078 50.279C186.078 48.87 187.15 47.837 188.612 47.8291V47.1172H189.179V47.8291C190.641 47.8364 191.713 48.87 191.713 50.279C191.713 51.6875 190.64 52.721 189.179 52.729V53.5248H188.612V52.729Z" fill="#000A14"/>
<path d="M197.792 50.379C197.792 48.9705 196.728 47.9903 195.365 47.9903C193.98 47.9903 192.924 49.0165 192.924 50.425C192.924 51.8487 194.003 52.829 195.365 52.829C196.743 52.829 197.792 51.7948 197.792 50.379ZM198.359 50.379C198.359 52.0785 197.042 53.3418 195.358 53.3418C193.689 53.3418 192.357 52.1244 192.357 50.425C192.357 48.7255 193.675 47.4775 195.358 47.4775C197.05 47.4775 198.359 48.6949 198.359 50.379Z" fill="#000A14"/>
<path d="M199.042 49.0238C199.517 48.0436 200.466 47.4775 201.652 47.4775C203.643 47.4775 204.592 49.0778 204.592 50.3943C204.592 52.1244 203.275 53.3418 201.606 53.3418C200.496 53.3418 199.547 52.7524 199.019 51.7648H199.692C200.143 52.492 200.924 52.829 201.606 52.829C202.823 52.829 203.903 51.9566 204.025 50.6474H200.702V50.1346H204.025C203.887 48.9405 202.946 47.9909 201.644 47.9909C200.886 47.9909 200.135 48.3126 199.715 49.0245H199.042V49.0238Z" fill="#000A14"/>
<path d="M205.48 47.5767H206.047V50.0726H209.01V47.5767H209.577V53.2418H209.01V50.5853H206.047V53.2418H205.48V47.5767Z" fill="#000A14"/>
<path d="M210.71 47.5767H213.818V48.0894H211.277V50.1338H213.734V50.6466H211.277V52.729H213.818V53.2418H210.71V47.5767Z" fill="#000A14"/>
<path d="M215.381 50.4555H216.614C217.625 50.4555 217.992 49.8661 217.992 49.2761C217.992 48.6715 217.624 48.0894 216.614 48.0894H215.381V50.4555ZM214.814 47.5767H216.606C218.267 47.5767 218.558 48.6329 218.558 49.2761C218.558 50.1179 218.038 50.9682 216.606 50.9682H215.381V53.2418H214.814V47.5767Z" fill="#000A14"/>
<path d="M219.348 47.5767H222.249V48.0894H219.914V53.2418H219.348V47.5767Z" fill="#000A14"/>
<path d="M227.509 50.379C227.509 48.9705 226.444 47.9903 225.082 47.9903C223.696 47.9903 222.639 49.0165 222.639 50.425C222.639 51.8487 223.719 52.829 225.082 52.829C226.46 52.829 227.509 51.7948 227.509 50.379ZM228.075 50.379C228.075 52.0785 226.759 53.3418 225.074 53.3418C223.405 53.3418 222.073 52.1244 222.073 50.425C222.073 48.7255 223.39 47.4775 225.074 47.4775C226.766 47.4775 228.075 48.6949 228.075 50.379Z" fill="#000A14"/>
<path d="M230.043 49.6518L230.488 49.4067L231.36 50.9377L230.495 52.4687L230.051 52.2237L230.771 50.9371L230.043 49.6518ZM228.711 49.6518L229.155 49.4067L230.028 50.9377L229.163 52.4687L228.719 52.2237L229.439 50.9371L228.711 49.6518Z" fill="#000A14"/>
<path d="M74.2812 43.0391H111.416" stroke="#000A14" stroke-width="0.183787" stroke-linecap="round"/>
<path d="M117.754 43.0391H186.563" stroke="#000A14" stroke-width="0.183787" stroke-linecap="round"/>
<path d="M192.34 43.0391H231.999" stroke="#000A14" stroke-width="0.183787" stroke-linecap="round"/>
<mask id="mask0_3110_4077" style="mask-type:luminance" maskUnits="userSpaceOnUse" x="74" y="22" width="14" height="17">
<path d="M85.7804 22.5161C84.4467 22.5161 83.8751 23.818 83.1448 24.9293L77.6513 33.1853C77.5876 33.2809 77.2383 33.8518 77.1109 34.0742C77.0791 34.1061 77.0791 34.1698 77.0478 34.1698C77.0159 34.1698 77.0159 34.1379 77.0159 34.1067C77.0159 34.043 77.0159 33.9162 77.0159 33.5982V22.8341H74.2217V36.2981C74.2217 36.9016 74.2535 38.394 75.8728 38.394C77.2065 38.394 77.7144 37.0921 78.4765 35.9802L84.0019 27.8191C84.0656 27.6923 84.4142 27.1526 84.5417 26.9302C84.5735 26.8983 84.5735 26.8352 84.6048 26.8352C84.6366 26.8352 84.6366 26.8671 84.6366 26.8983C84.6366 26.9614 84.6366 27.0889 84.6366 27.4062V38.076H87.4315V24.4214C87.4315 24.1672 87.4315 22.5161 85.7804 22.5161Z" fill="white"/>
</mask>
<g mask="url(#mask0_3110_4077)">
<path d="M87.4315 22.5161H74.2217V38.3934H87.4315V22.5161Z" fill="#000A14"/>
</g>
<mask id="mask1_3110_4077" style="mask-type:luminance" maskUnits="userSpaceOnUse" x="89" y="22" width="14" height="17">
<path d="M99.7516 28.4544H92.512V22.834H89.7178V38.0759H92.512V31.1218H99.7516V38.0759H102.546V22.834H99.7516V28.4544Z" fill="white"/>
</mask>
<g mask="url(#mask1_3110_4077)">
<path d="M102.546 22.834H89.7178V38.0759H102.546V22.834Z" fill="#000A14"/>
</g>
<mask id="mask2_3110_4077" style="mask-type:luminance" maskUnits="userSpaceOnUse" x="104" y="15" width="21" height="31">
<path d="M117.215 35.4087V35.4075H116.072V25.5017C120.772 25.438 121.915 28.4865 121.915 30.4555C121.915 32.8368 120.168 35.2182 117.215 35.4087ZM107.435 30.4555C107.435 28.0098 109.213 25.7241 112.134 25.5017H113.277V35.4093C110.769 35.4724 107.435 34.2655 107.435 30.4555ZM116.516 22.8342H116.072V15.8477H113.278V22.833H112.135V22.8336C107.181 22.9604 104.577 26.9297 104.577 30.4867C104.577 34.8371 108.165 38.0755 112.738 38.0755H113.278V45.0615H116.072V38.0762H117.215C122.169 37.9493 124.773 33.98 124.773 30.4236C124.772 26.1045 121.438 22.8342 116.516 22.8342Z" fill="white"/>
</mask>
<g mask="url(#mask2_3110_4077)">
<path d="M124.773 15.8477H104.577V45.0621H124.773V15.8477Z" fill="#000A14"/>
</g>
<mask id="mask3_3110_4077" style="mask-type:luminance" maskUnits="userSpaceOnUse" x="126" y="22" width="17" height="17">
<path d="M134.297 35.7259C131.312 35.7259 129.216 33.567 129.216 30.4547C129.216 27.3425 131.312 25.1829 134.297 25.1829C137.314 25.1829 139.378 27.3738 139.378 30.4547C139.377 33.5351 137.314 35.7259 134.297 35.7259ZM134.297 22.5161C129.883 22.5161 126.358 26.0406 126.358 30.4547C126.358 34.8682 129.883 38.3934 134.297 38.3934C138.71 38.3934 142.236 34.8682 142.236 30.4547C142.236 26.0413 138.71 22.5161 134.297 22.5161Z" fill="white"/>
</mask>
<g mask="url(#mask3_3110_4077)">
<path d="M142.236 22.5161H126.358V38.3934H142.236V22.5161Z" fill="#000A14"/>
</g>
<mask id="mask4_3110_4077" style="mask-type:luminance" maskUnits="userSpaceOnUse" x="143" y="22" width="12" height="17">
<path d="M150.46 23.9135C148.745 22.9608 146.617 22.834 145.252 22.834H143.505V25.5014H145.22C147.506 25.5014 148.586 25.8506 149.189 26.2005C150.142 26.7402 150.936 27.7878 151.221 29.0266H143.505V31.694H151.221C150.967 33.282 149.982 34.234 149.157 34.7107C148.364 35.1554 147.22 35.4091 145.188 35.4091H143.505V38.0765H145.473C147.22 38.0765 149.824 37.9185 151.951 35.7908C152.998 34.7431 154.078 33.0284 154.078 30.3922C154.079 26.2317 151.412 24.4532 150.46 23.9135Z" fill="white"/>
</mask>
<g mask="url(#mask4_3110_4077)">
<path d="M154.08 22.834H143.506V38.0759H154.08V22.834Z" fill="#000A14"/>
</g>
<mask id="mask5_3110_4077" style="mask-type:luminance" maskUnits="userSpaceOnUse" x="156" y="22" width="13" height="17">
<path d="M166.082 28.4544H158.842V22.834H156.048V38.0759H158.842V31.1218H166.082V38.0759H168.877V22.834H166.082V28.4544Z" fill="white"/>
</mask>
<g mask="url(#mask5_3110_4077)">
<path d="M168.877 22.834H156.048V38.0759H168.877V22.834Z" fill="#000A14"/>
</g>
<mask id="mask6_3110_4077" style="mask-type:luminance" maskUnits="userSpaceOnUse" x="206" y="22" width="11" height="17">
<path d="M216.123 22.834H212.916C210.979 22.834 209.137 22.8022 207.676 24.3583C206.279 25.8825 206.311 28.0415 206.311 29.4077V38.0766H209.105V29.4077C209.105 28.5818 209.041 27.1844 209.708 26.3592C210.407 25.5015 211.391 25.5015 212.344 25.5015H216.123V22.834H216.123Z" fill="white"/>
</mask>
<g mask="url(#mask6_3110_4077)">
<path d="M216.124 22.8022H206.28V38.076H216.124V22.8022Z" fill="#000A14"/>
</g>
<mask id="mask7_3110_4077" style="mask-type:luminance" maskUnits="userSpaceOnUse" x="216" y="22" width="16" height="17">
<path d="M224.061 35.7259C221.076 35.7259 218.98 33.567 218.98 30.4547C218.98 27.3425 221.076 25.1829 224.061 25.1829C227.077 25.1829 229.141 27.3738 229.141 30.4547C229.141 33.5351 227.077 35.7259 224.061 35.7259ZM224.061 22.5161C219.647 22.5161 216.122 26.0406 216.122 30.4547C216.122 34.8682 219.647 38.3934 224.061 38.3934C228.475 38.3934 231.999 34.8682 231.999 30.4547C231.999 26.0413 228.475 22.5161 224.061 22.5161Z" fill="white"/>
</mask>
<g mask="url(#mask7_3110_4077)">
<path d="M231.999 22.5156H216.122V38.3929H231.999V22.5156Z" fill="#000A14"/>
</g>
<mask id="mask8_3110_4077" style="mask-type:luminance" maskUnits="userSpaceOnUse" x="188" y="22" width="17" height="24">
<path d="M196.437 35.6867C193.521 35.6867 191.157 33.3231 191.157 30.4069C191.157 27.4914 193.521 25.1272 196.437 25.1272C199.353 25.1272 201.717 27.4914 201.717 30.4069C201.717 33.3231 199.353 35.6867 196.437 35.6867ZM196.437 22.4248C192.029 22.4248 188.455 25.9983 188.455 30.4069V45.0913H191.157V36.3906C192.565 37.6336 194.412 38.3884 196.437 38.3884C200.846 38.3884 204.419 34.8149 204.419 30.4063C204.419 25.9983 200.845 22.4248 196.437 22.4248Z" fill="white"/>
</mask>
<g mask="url(#mask8_3110_4077)">
<path d="M204.419 22.4248H188.455V45.0913H204.419V22.4248Z" fill="#000A14"/>
</g>
<mask id="mask9_3110_4077" style="mask-type:luminance" maskUnits="userSpaceOnUse" x="170" y="22" width="17" height="17">
<path d="M173.82 28.8168C173.929 28.5331 174.061 28.266 174.222 27.9775C175.698 25.3462 178.545 24.3586 181.149 25.8185C182.091 26.346 183.117 27.1767 183.509 28.8168H173.82ZM182.509 23.5236C178.603 21.334 173.935 22.6469 171.729 26.58C170.115 29.4601 170.423 32.5459 172.045 34.912C172.75 35.9259 173.663 36.7658 174.743 37.3717C175.989 38.0701 177.392 38.4922 178.813 38.4892C180.031 38.483 182.511 38.1773 184.5 35.8965C184.502 35.8946 184.504 35.8934 184.505 35.8916C185.783 34.5039 186.174 33.3914 186.174 33.3914H182.836C181.895 34.9389 180.319 35.8027 178.839 35.8462C177.842 35.8707 176.878 35.5111 175.992 35.0143C175.162 34.5487 174.455 33.8607 173.996 33.0575C173.719 32.5539 173.533 31.9719 173.465 31.3372H186.574C186.872 27.7538 185.112 24.9835 182.509 23.5236Z" fill="white"/>
</mask>
<g mask="url(#mask9_3110_4077)">
<path d="M186.871 21.333H170.113V38.4919H186.871V21.333Z" fill="#000A14"/>
</g>
<circle cx="34.6822" cy="34.6822" r="34.6822" fill="url(#paint0_radial_3110_4077)"/>
<ellipse cx="33.917" cy="34.6822" rx="33.917" ry="34.6822" fill="url(#paint1_radial_3110_4077)"/>
<path d="M26.3537 8.30138C33.0831 8.75911 38.9925 11.4159 43.6493 16.0828C44.9763 17.4112 45.9206 18.5605 46.9544 20.1128C48.341 22.1974 49.2704 24.098 50.0606 26.4812C50.4583 27.6802 50.7664 28.8395 50.9602 29.8793L51.0696 30.4614H51.7256H52.3816L52.2624 29.8246C51.4274 25.4115 49.4841 21.3317 46.5319 17.7694C45.866 16.9734 44.0519 15.1574 43.2517 14.4907C39.8175 11.6299 35.8763 9.72432 31.5573 8.82379C30.1111 8.52029 28.5107 8.34118 26.9998 8.30635C26.4929 8.29143 26.2046 8.29143 26.3537 8.30138Z" fill="black"/>
<path d="M26.3537 8.30138C33.0831 8.75911 38.9925 11.4159 43.6493 16.0828C44.9763 17.4112 45.9206 18.5605 46.9544 20.1128C48.341 22.1974 49.2704 24.098 50.0606 26.4812C50.4583 27.6802 50.7664 28.8395 50.9602 29.8793L51.0696 30.4614H51.7256H52.3816L52.2624 29.8246C51.4274 25.4115 49.4841 21.3317 46.5319 17.7694C45.866 16.9734 44.0519 15.1574 43.2517 14.4907C39.8175 11.6299 35.8763 9.72432 31.5573 8.82379C30.1111 8.52029 28.5107 8.34118 26.9998 8.30635C26.4929 8.29143 26.2046 8.29143 26.3537 8.30138Z" fill="url(#paint2_linear_3110_4077)"/>
<path fill-rule="evenodd" clip-rule="evenodd" d="M51.0623 30.4606H39.9155L37.2248 38.8781L51.0773 38.8563C49.1373 51.4449 38.5127 61.0701 25.6969 61.0701C11.5049 61.0701 0 49.2668 0 34.7067C0 20.1466 11.5049 8.34326 25.6969 8.34326C38.48 8.34326 49.083 17.9193 51.0623 30.4606Z" fill="url(#paint3_radial_3110_4077)"/>
<path d="M16.2819 16.9062H17.439L16.8222 38.2414H15.665L16.2819 16.9062Z" fill="#9E9E9E"/>
<path d="M32.1562 27.0884H33.3133L7.18061 53.0412H6.02344L32.1562 27.0884Z" fill="#818181"/>
<path d="M46.1763 7.25732H47.3335L33.3134 51.1674H32.1562L46.1763 7.25732Z" fill="#919191"/>
<path d="M46.1762 7.25732L32.1562 51.1674V27.0883L6.02344 53.0411L16.2813 16.9063L15.6645 38.2415L46.1762 7.25732Z" fill="white"/>
<path d="M26.3537 61.0136C33.0831 60.5558 38.9925 57.899 43.6493 53.2322C44.9763 51.9038 45.9206 50.7545 46.9544 49.2022C48.341 47.1175 49.2704 45.2169 50.0606 42.8338C50.4583 41.6347 50.7664 40.4755 50.9602 39.4356L51.0696 38.8535H51.7256H52.3816L52.2624 39.4904C51.4274 43.9035 49.4841 47.9832 46.5319 51.5455C45.866 52.3416 44.0519 54.1576 43.2517 54.8243C39.8175 57.6851 35.8763 59.5906 31.5573 60.4912C30.1111 60.7946 28.5107 60.9738 26.9998 61.0086C26.4929 61.0235 26.2046 61.0235 26.3537 61.0136Z" fill="black"/>
<path d="M26.3537 61.0136C33.0831 60.5558 38.9925 57.899 43.6493 53.2322C44.9763 51.9038 45.9206 50.7545 46.9544 49.2022C48.341 47.1175 49.2704 45.2169 50.0606 42.8338C50.4583 41.6347 50.7664 40.4755 50.9602 39.4356L51.0696 38.8535H51.7256H52.3816L52.2624 39.4904C51.4274 43.9035 49.4841 47.9832 46.5319 51.5455C45.866 52.3416 44.0519 54.1576 43.2517 54.8243C39.8175 57.6851 35.8763 59.5906 31.5573 60.4912C30.1111 60.7946 28.5107 60.9738 26.9998 61.0086C26.4929 61.0235 26.2046 61.0235 26.3537 61.0136Z" fill="url(#paint4_linear_3110_4077)"/>
<defs>
<radialGradient id="paint0_radial_3110_4077" cx="0" cy="0" r="1" gradientUnits="userSpaceOnUse" gradientTransform="translate(58.7499 8.19537) rotate(86.531) scale(55.8901)">
<stop stop-color="#93C7E9"/>
<stop offset="1" stop-color="#0F4294"/>
</radialGradient>
<radialGradient id="paint1_radial_3110_4077" cx="0" cy="0" r="1" gradientUnits="userSpaceOnUse" gradientTransform="translate(33.917 34.6822) rotate(90) scale(34.6822 33.917)">
<stop stop-color="#6BAFE1"/>
<stop offset="1" stop-color="#1E519F"/>
</radialGradient>
<linearGradient id="paint2_linear_3110_4077" x1="31.3748" y1="8.29444" x2="51.8633" y2="30.4614" gradientUnits="userSpaceOnUse">
<stop stop-color="#0F4294"/>
<stop offset="1" stop-color="#2458A5"/>
</linearGradient>
<radialGradient id="paint3_radial_3110_4077" cx="0" cy="0" r="1" gradientUnits="userSpaceOnUse" gradientTransform="translate(25.6969 34.7067) rotate(90) scale(26.3634 25.6969)">
<stop stop-color="#F8B400"/>
<stop offset="1" stop-color="#EA6A0A"/>
</radialGradient>
<linearGradient id="paint4_linear_3110_4077" x1="31.3748" y1="61.0205" x2="51.8633" y2="38.8535" gradientUnits="userSpaceOnUse">
<stop stop-color="#77BCE8"/>
<stop offset="1" stop-color="#3671B7"/>
</linearGradient>
</defs>
</svg>
