<?xml version="1.0" encoding="UTF-8" standalone="no"?>
<!DOCTYPE svg PUBLIC "-//W3C//DTD SVG 1.1//EN"
 "http://www.w3.org/Graphics/SVG/1.1/DTD/svg11.dtd">
<!-- Generated by graphviz version 15.0.0 (0)
 -->
<!-- Title: Dependency Graph Pages: 1 -->
<svg width="1366pt" height="997pt"
 viewBox="0.00 0.00 1366.00 997.00" xmlns="http://www.w3.org/2000/svg" xmlns:xlink="http://www.w3.org/1999/xlink">
<g id="graph0" class="graph" transform="scale(1 1) rotate(0) translate(4 993.06)">
<title>Dependency Graph</title>
<polygon fill="white" stroke="none" points="-4,4 -4,-993.06 1362.26,-993.06 1362.26,4 -4,4"/>
<!-- FileSystemScanner.js -->
<g id="node1" class="node">
<title>FileSystemScanner.js</title>
<path fill="#4f46e5" stroke="#4f46e5" stroke-width="2" d="M154.94,-36C154.94,-36 12,-36 12,-36 6,-36 0,-30 0,-24 0,-24 0,-12 0,-12 0,-6 6,0 12,0 12,0 154.94,0 154.94,0 160.94,0 166.94,-6 166.94,-12 166.94,-12 166.94,-24 166.94,-24 166.94,-30 160.94,-36 154.94,-36"/>
<text xml:space="preserve" text-anchor="middle" x="83.47" y="-13.8" font-family="Arial" font-size="14.00" fill="#ffffff">⭐ FileSystemScanner.js</text>
</g>
<!-- __dirname -->
<g id="node2" class="node">
<title>__dirname</title>
<path fill="#f3f4f6" stroke="#4f46e5" d="M112.54,-90C112.54,-90 54.39,-90 54.39,-90 48.39,-90 42.39,-84 42.39,-78 42.39,-78 42.39,-66 42.39,-66 42.39,-60 48.39,-54 54.39,-54 54.39,-54 112.54,-54 112.54,-54 118.54,-54 124.54,-60 124.54,-66 124.54,-66 124.54,-78 124.54,-78 124.54,-84 118.54,-90 112.54,-90"/>
<text xml:space="preserve" text-anchor="middle" x="83.47" y="-67.8" font-family="Arial" font-size="14.00" fill="#1f2937">__dirname</text>
</g>
<!-- __filename -->
<g id="node3" class="node">
<title>__filename</title>
<path fill="#f3f4f6" stroke="#4f46e5" d="M315.5,-90C315.5,-90 255.01,-90 255.01,-90 249.01,-90 243.01,-84 243.01,-78 243.01,-78 243.01,-66 243.01,-66 243.01,-60 249.01,-54 255.01,-54 255.01,-54 315.5,-54 315.5,-54 321.5,-54 327.5,-60 327.5,-66 327.5,-66 327.5,-78 327.5,-78 327.5,-84 321.5,-90 315.5,-90"/>
<text xml:space="preserve" text-anchor="middle" x="285.26" y="-67.8" font-family="Arial" font-size="14.00" fill="#1f2937">__filename</text>
</g>
<!-- __dirname&#45;&gt;__filename -->
<g id="edge1" class="edge">
<title>__dirname&#45;&gt;__filename</title>
<path fill="none" stroke="#9ca3af" d="M124.9,-72C155.73,-72 198.45,-72 231.9,-72"/>
<polygon fill="#9ca3af" stroke="#9ca3af" points="241.64,-72 231.64,-76.5 237.86,-72 231.64,-72 231.64,-72 231.64,-72 237.86,-72 231.64,-67.5 241.64,-72"/>
</g>
<!-- getCurrentLanguage -->
<g id="node4" class="node">
<title>getCurrentLanguage</title>
<path fill="#f3f4f6" stroke="#4f46e5" d="M837.69,-212C837.69,-212 717.25,-212 717.25,-212 711.25,-212 705.25,-206 705.25,-200 705.25,-200 705.25,-188 705.25,-188 705.25,-182 711.25,-176 717.25,-176 717.25,-176 837.69,-176 837.69,-176 843.69,-176 849.69,-182 849.69,-188 849.69,-188 849.69,-200 849.69,-200 849.69,-206 843.69,-212 837.69,-212"/>
<text xml:space="preserve" text-anchor="middle" x="777.47" y="-189.8" font-family="Arial" font-size="14.00" fill="#1f2937">getCurrentLanguage</text>
</g>
<!-- language -->
<g id="node5" class="node">
<title>language</title>
<path fill="#f3f4f6" stroke="#4f46e5" d="M992.42,-457C992.42,-457 942.81,-457 942.81,-457 936.81,-457 930.81,-451 930.81,-445 930.81,-445 930.81,-433 930.81,-433 930.81,-427 936.81,-421 942.81,-421 942.81,-421 992.42,-421 992.42,-421 998.42,-421 1004.42,-427 1004.42,-433 1004.42,-433 1004.42,-445 1004.42,-445 1004.42,-451 998.42,-457 992.42,-457"/>
<text xml:space="preserve" text-anchor="middle" x="967.61" y="-434.8" font-family="Arial" font-size="14.00" fill="#1f2937">language</text>
</g>
<!-- getCurrentLanguage&#45;&gt;language -->
<g id="edge2" class="edge">
<title>getCurrentLanguage&#45;&gt;language</title>
<path fill="none" stroke="#9ca3af" d="M838.19,-212.3C842.33,-214.84 846.23,-217.73 849.69,-221 878.31,-248.07 867.64,-266.98 885.69,-302 905.75,-340.93 932,-384.18 949.08,-411.47"/>
<polygon fill="#9ca3af" stroke="#9ca3af" points="954.28,-419.74 945.14,-413.67 952.26,-416.54 948.95,-411.27 948.95,-411.27 948.95,-411.27 952.26,-416.54 952.76,-408.88 954.28,-419.74"/>
</g>
<!-- config -->
<g id="node6" class="node">
<title>config</title>
<path fill="#f3f4f6" stroke="#4f46e5" d="M1236.9,-591C1236.9,-591 1206.9,-591 1206.9,-591 1200.9,-591 1194.9,-585 1194.9,-579 1194.9,-579 1194.9,-567 1194.9,-567 1194.9,-561 1200.9,-555 1206.9,-555 1206.9,-555 1236.9,-555 1236.9,-555 1242.9,-555 1248.9,-561 1248.9,-567 1248.9,-567 1248.9,-579 1248.9,-579 1248.9,-585 1242.9,-591 1236.9,-591"/>
<text xml:space="preserve" text-anchor="middle" x="1221.9" y="-568.8" font-family="Arial" font-size="14.00" fill="#1f2937">config</text>
</g>
<!-- getCurrentLanguage&#45;&gt;config -->
<g id="edge3" class="edge">
<title>getCurrentLanguage&#45;&gt;config</title>
<path fill="none" stroke="#9ca3af" d="M850.03,-191.97C908.98,-193.85 991.95,-205.02 1049.54,-248 1151.78,-324.3 1198.86,-479.73 1214.57,-544.09"/>
<polygon fill="#9ca3af" stroke="#9ca3af" points="1216.78,-553.48 1210.1,-544.78 1215.91,-549.8 1214.48,-543.75 1214.48,-543.75 1214.48,-543.75 1215.91,-549.8 1218.86,-542.71 1216.78,-553.48"/>
</g>
<!-- language&#45;&gt;config -->
<g id="edge4" class="edge">
<title>language&#45;&gt;config</title>
<path fill="none" stroke="#9ca3af" d="M1004.78,-449.06C1019.02,-453.53 1035.34,-459.31 1049.54,-466 1099.57,-489.56 1152.98,-524.69 1186.63,-548.2"/>
<polygon fill="#9ca3af" stroke="#9ca3af" points="1194.58,-553.8 1183.81,-551.72 1191.49,-551.62 1186.4,-548.04 1186.4,-548.04 1186.4,-548.04 1191.49,-551.62 1188.99,-544.36 1194.58,-553.8"/>
</g>
<!-- t -->
<g id="node7" class="node">
<title>t</title>
<path fill="#f3f4f6" stroke="#4f46e5" d="M463.93,-258C463.93,-258 433.93,-258 433.93,-258 427.93,-258 421.93,-252 421.93,-246 421.93,-246 421.93,-234 421.93,-234 421.93,-228 427.93,-222 433.93,-222 433.93,-222 463.93,-222 463.93,-222 469.93,-222 475.93,-228 475.93,-234 475.93,-234 475.93,-246 475.93,-246 475.93,-252 469.93,-258 463.93,-258"/>
<text xml:space="preserve" text-anchor="middle" x="448.93" y="-235.8" font-family="Arial" font-size="14.00" fill="#1f2937">t</text>
</g>
<!-- t&#45;&gt;getCurrentLanguage -->
<g id="edge6" class="edge">
<title>t&#45;&gt;getCurrentLanguage</title>
<path fill="none" stroke="#9ca3af" d="M476.11,-252.11C518.86,-269.99 605.28,-298.17 669.25,-267 692.59,-255.63 684.35,-236.39 705.25,-221 706.75,-219.9 708.31,-218.83 709.9,-217.8"/>
<polygon fill="#9ca3af" stroke="#9ca3af" points="718.33,-212.95 711.91,-221.84 715.05,-214.84 709.66,-217.94 709.66,-217.94 709.66,-217.94 715.05,-214.84 707.42,-214.04 718.33,-212.95"/>
</g>
<!-- lang -->
<g id="node8" class="node">
<title>lang</title>
<path fill="#f3f4f6" stroke="#4f46e5" d="M614.77,-350C614.77,-350 584.77,-350 584.77,-350 578.77,-350 572.77,-344 572.77,-338 572.77,-338 572.77,-326 572.77,-326 572.77,-320 578.77,-314 584.77,-314 584.77,-314 614.77,-314 614.77,-314 620.77,-314 626.77,-320 626.77,-326 626.77,-326 626.77,-338 626.77,-338 626.77,-344 620.77,-350 614.77,-350"/>
<text xml:space="preserve" text-anchor="middle" x="599.77" y="-327.8" font-family="Arial" font-size="14.00" fill="#1f2937">lang</text>
</g>
<!-- t&#45;&gt;lang -->
<g id="edge5" class="edge">
<title>t&#45;&gt;lang</title>
<path fill="none" stroke="#9ca3af" d="M475.84,-258.46C481.92,-262.85 488.35,-267.56 494.28,-272 510.5,-284.15 512.99,-289.42 530.28,-300 540.27,-306.11 551.62,-311.85 562.17,-316.74"/>
<polygon fill="#9ca3af" stroke="#9ca3af" points="571.25,-320.82 560.29,-320.83 567.8,-319.27 562.13,-316.72 562.13,-316.72 562.13,-316.72 567.8,-319.27 563.97,-312.62 571.25,-320.82"/>
</g>
<!-- languageTemplates -->
<g id="node9" class="node">
<title>languageTemplates</title>
<path fill="#f3f4f6" stroke="#4f46e5" d="M657.25,-258C657.25,-258 542.28,-258 542.28,-258 536.28,-258 530.28,-252 530.28,-246 530.28,-246 530.28,-234 530.28,-234 530.28,-228 536.28,-222 542.28,-222 542.28,-222 657.25,-222 657.25,-222 663.25,-222 669.25,-228 669.25,-234 669.25,-234 669.25,-246 669.25,-246 669.25,-252 663.25,-258 657.25,-258"/>
<text xml:space="preserve" text-anchor="middle" x="599.77" y="-235.8" font-family="Arial" font-size="14.00" fill="#1f2937">languageTemplates</text>
</g>
<!-- t&#45;&gt;languageTemplates -->
<g id="edge7" class="edge">
<title>t&#45;&gt;languageTemplates</title>
<path fill="none" stroke="#9ca3af" d="M476.2,-240C488.28,-240 503.34,-240 518.72,-240"/>
<polygon fill="#9ca3af" stroke="#9ca3af" points="528.72,-240 518.72,-244.5 524.94,-240 518.72,-240 518.72,-240 518.72,-240 524.94,-240 518.72,-235.5 528.72,-240"/>
</g>
<!-- lang&#45;&gt;getCurrentLanguage -->
<g id="edge8" class="edge">
<title>lang&#45;&gt;getCurrentLanguage</title>
<path fill="none" stroke="#9ca3af" d="M627.14,-324.59C641.11,-319.56 657.71,-311.66 669.25,-300 696.41,-272.59 677.09,-247.38 705.25,-221 706.12,-220.19 707.02,-219.4 707.94,-218.63"/>
<polygon fill="#9ca3af" stroke="#9ca3af" points="715.79,-213.04 710.25,-222.51 712.7,-215.24 707.64,-218.84 707.64,-218.84 707.64,-218.84 712.7,-215.24 705.03,-215.18 715.79,-213.04"/>
</g>
<!-- getLocalizedDescription -->
<g id="node10" class="node">
<title>getLocalizedDescription</title>
<path fill="#f3f4f6" stroke="#4f46e5" d="M355.58,-258C355.58,-258 214.94,-258 214.94,-258 208.94,-258 202.94,-252 202.94,-246 202.94,-246 202.94,-234 202.94,-234 202.94,-228 208.94,-222 214.94,-222 214.94,-222 355.58,-222 355.58,-222 361.58,-222 367.58,-228 367.58,-234 367.58,-234 367.58,-246 367.58,-246 367.58,-252 361.58,-258 355.58,-258"/>
<text xml:space="preserve" text-anchor="middle" x="285.26" y="-235.8" font-family="Arial" font-size="14.00" fill="#1f2937">getLocalizedDescription</text>
</g>
<!-- getLocalizedDescription&#45;&gt;getCurrentLanguage -->
<g id="edge10" class="edge">
<title>getLocalizedDescription&#45;&gt;getCurrentLanguage</title>
<path fill="none" stroke="#9ca3af" d="M357.23,-221.56C372.43,-218.21 388.47,-215.11 403.58,-213 502.86,-199.16 618.27,-195.1 694.09,-194.07"/>
<polygon fill="#9ca3af" stroke="#9ca3af" points="703.76,-193.95 693.82,-198.57 699.98,-193.99 693.76,-194.07 693.76,-194.07 693.76,-194.07 699.98,-193.99 693.71,-189.57 703.76,-193.95"/>
</g>
<!-- getLocalizedDescription&#45;&gt;t -->
<g id="edge11" class="edge">
<title>getLocalizedDescription&#45;&gt;t</title>
<path fill="none" stroke="#9ca3af" d="M368.04,-240C382.91,-240 397.74,-240 410.51,-240"/>
<polygon fill="#9ca3af" stroke="#9ca3af" points="420.39,-240 410.39,-244.5 416.61,-240 410.39,-240 410.39,-240 410.39,-240 416.61,-240 410.39,-235.5 420.39,-240"/>
</g>
<!-- getLocalizedDescription&#45;&gt;lang -->
<g id="edge9" class="edge">
<title>getLocalizedDescription&#45;&gt;lang</title>
<path fill="none" stroke="#9ca3af" d="M348.75,-258.4C412.6,-277.2 509.61,-305.75 562.04,-321.19"/>
<polygon fill="#9ca3af" stroke="#9ca3af" points="571.36,-323.93 560.49,-325.42 567.73,-322.86 561.76,-321.11 561.76,-321.11 561.76,-321.11 567.73,-322.86 563.04,-316.79 571.36,-323.93"/>
</g>
<!-- isExcluded -->
<g id="node11" class="node">
<title>isExcluded</title>
<path fill="#f3f4f6" stroke="#4f46e5" d="M629.62,-496C629.62,-496 569.92,-496 569.92,-496 563.92,-496 557.92,-490 557.92,-484 557.92,-484 557.92,-472 557.92,-472 557.92,-466 563.92,-460 569.92,-460 569.92,-460 629.62,-460 629.62,-460 635.62,-460 641.62,-466 641.62,-472 641.62,-472 641.62,-484 641.62,-484 641.62,-490 635.62,-496 629.62,-496"/>
<text xml:space="preserve" text-anchor="middle" x="599.77" y="-473.8" font-family="Arial" font-size="14.00" fill="#1f2937">isExcluded</text>
</g>
<!-- isExcluded&#45;&gt;config -->
<g id="edge13" class="edge">
<title>isExcluded&#45;&gt;config</title>
<path fill="none" stroke="#9ca3af" d="M641.82,-465.02C651.8,-460.3 661.76,-454.08 669.25,-446 699.96,-412.9 668.1,-376.65 705.25,-351 758.08,-314.53 786.2,-341.53 849.69,-351 941.54,-364.71 969.19,-365.43 1049.54,-412 1111.73,-448.04 1169.44,-510.67 1199.41,-546.26"/>
<polygon fill="#9ca3af" stroke="#9ca3af" points="1205.64,-553.76 1195.79,-548.94 1203.22,-550.85 1199.25,-546.07 1199.25,-546.07 1199.25,-546.07 1203.22,-550.85 1202.71,-543.19 1205.64,-553.76"/>
</g>
<!-- excludePatterns -->
<g id="node12" class="node">
<title>excludePatterns</title>
<path fill="#f3f4f6" stroke="#4f46e5" d="M1013.81,-511C1013.81,-511 921.42,-511 921.42,-511 915.42,-511 909.42,-505 909.42,-499 909.42,-499 909.42,-487 909.42,-487 909.42,-481 915.42,-475 921.42,-475 921.42,-475 1013.81,-475 1013.81,-475 1019.81,-475 1025.81,-481 1025.81,-487 1025.81,-487 1025.81,-499 1025.81,-499 1025.81,-505 1019.81,-511 1013.81,-511"/>
<text xml:space="preserve" text-anchor="middle" x="967.61" y="-488.8" font-family="Arial" font-size="14.00" fill="#1f2937">excludePatterns</text>
</g>
<!-- isExcluded&#45;&gt;excludePatterns -->
<g id="edge12" class="edge">
<title>isExcluded&#45;&gt;excludePatterns</title>
<path fill="none" stroke="#9ca3af" d="M642.02,-479.69C704.27,-482.24 822.92,-487.11 898.23,-490.2"/>
<polygon fill="#9ca3af" stroke="#9ca3af" points="907.8,-490.59 897.62,-494.67 904.02,-490.43 897.81,-490.18 897.81,-490.18 897.81,-490.18 904.02,-490.43 897.99,-485.68 907.8,-490.59"/>
</g>
<!-- respectExcludePatterns -->
<g id="node13" class="node">
<title>respectExcludePatterns</title>
<path fill="#f3f4f6" stroke="#4f46e5" d="M1037.54,-656C1037.54,-656 897.69,-656 897.69,-656 891.69,-656 885.69,-650 885.69,-644 885.69,-644 885.69,-632 885.69,-632 885.69,-626 891.69,-620 897.69,-620 897.69,-620 1037.54,-620 1037.54,-620 1043.54,-620 1049.54,-626 1049.54,-632 1049.54,-632 1049.54,-644 1049.54,-644 1049.54,-650 1043.54,-656 1037.54,-656"/>
<text xml:space="preserve" text-anchor="middle" x="967.61" y="-633.8" font-family="Arial" font-size="14.00" fill="#1f2937">respectExcludePatterns</text>
</g>
<!-- isExcluded&#45;&gt;respectExcludePatterns -->
<g id="edge14" class="edge">
<title>isExcluded&#45;&gt;respectExcludePatterns</title>
<path fill="none" stroke="#9ca3af" d="M642.02,-496.04C708.95,-525.31 841.08,-583.1 914.43,-615.18"/>
<polygon fill="#9ca3af" stroke="#9ca3af" points="923.27,-619.04 912.3,-619.16 919.8,-617.53 914.1,-615.04 914.1,-615.04 914.1,-615.04 919.8,-617.53 915.91,-610.91 923.27,-619.04"/>
</g>
<!-- excludedDirs -->
<g id="node14" class="node">
<title>excludedDirs</title>
<path fill="#f3f4f6" stroke="#4f46e5" d="M813.93,-450C813.93,-450 741.01,-450 741.01,-450 735.01,-450 729.01,-444 729.01,-438 729.01,-438 729.01,-426 729.01,-426 729.01,-420 735.01,-414 741.01,-414 741.01,-414 813.93,-414 813.93,-414 819.93,-414 825.93,-420 825.93,-426 825.93,-426 825.93,-438 825.93,-438 825.93,-444 819.93,-450 813.93,-450"/>
<text xml:space="preserve" text-anchor="middle" x="777.47" y="-427.8" font-family="Arial" font-size="14.00" fill="#1f2937">excludedDirs</text>
</g>
<!-- isExcluded&#45;&gt;excludedDirs -->
<g id="edge15" class="edge">
<title>isExcluded&#45;&gt;excludedDirs</title>
<path fill="none" stroke="#9ca3af" d="M641.96,-467.22C664.58,-461.29 693.01,-453.85 717.9,-447.33"/>
<polygon fill="#9ca3af" stroke="#9ca3af" points="727.51,-444.82 718.98,-451.7 723.85,-445.78 717.84,-447.35 717.84,-447.35 717.84,-447.35 723.85,-445.78 716.7,-443 727.51,-444.82"/>
</g>
<!-- excludedFiles -->
<g id="node15" class="node">
<title>excludedFiles</title>
<path fill="#f3f4f6" stroke="#4f46e5" d="M816.27,-396C816.27,-396 738.67,-396 738.67,-396 732.67,-396 726.67,-390 726.67,-384 726.67,-384 726.67,-372 726.67,-372 726.67,-366 732.67,-360 738.67,-360 738.67,-360 816.27,-360 816.27,-360 822.27,-360 828.27,-366 828.27,-372 828.27,-372 828.27,-384 828.27,-384 828.27,-390 822.27,-396 816.27,-396"/>
<text xml:space="preserve" text-anchor="middle" x="777.47" y="-373.8" font-family="Arial" font-size="14.00" fill="#1f2937">excludedFiles</text>
</g>
<!-- isExcluded&#45;&gt;excludedFiles -->
<g id="edge16" class="edge">
<title>isExcluded&#45;&gt;excludedFiles</title>
<path fill="none" stroke="#9ca3af" d="M641.82,-462.18C651.26,-457.65 660.96,-452.22 669.25,-446 688.65,-431.45 685.33,-418.82 705.25,-405 708.76,-402.57 712.51,-400.32 716.4,-398.25"/>
<polygon fill="#9ca3af" stroke="#9ca3af" points="725.15,-393.99 718.13,-402.41 721.75,-395.65 716.16,-398.37 716.16,-398.37 716.16,-398.37 721.75,-395.65 714.19,-394.32 725.15,-393.99"/>
</g>
<!-- regexPattern -->
<g id="node16" class="node">
<title>regexPattern</title>
<path fill="#f3f4f6" stroke="#4f46e5" d="M1003.69,-293C1003.69,-293 931.53,-293 931.53,-293 925.53,-293 919.53,-287 919.53,-281 919.53,-281 919.53,-269 919.53,-269 919.53,-263 925.53,-257 931.53,-257 931.53,-257 1003.69,-257 1003.69,-257 1009.69,-257 1015.69,-263 1015.69,-269 1015.69,-269 1015.69,-281 1015.69,-281 1015.69,-287 1009.69,-293 1003.69,-293"/>
<text xml:space="preserve" text-anchor="middle" x="967.61" y="-270.8" font-family="Arial" font-size="14.00" fill="#1f2937">regexPattern</text>
</g>
<!-- isExcluded&#45;&gt;regexPattern -->
<g id="edge17" class="edge">
<title>isExcluded&#45;&gt;regexPattern</title>
<path fill="none" stroke="#9ca3af" d="M641.95,-465.62C652.06,-460.89 662.03,-454.5 669.25,-446 707.5,-400.95 661.21,-357.4 705.25,-318 734.43,-291.9 840.42,-281.49 908.13,-277.45"/>
<polygon fill="#9ca3af" stroke="#9ca3af" points="917.85,-276.91 908.12,-281.96 914.07,-277.12 907.86,-277.47 907.86,-277.47 907.86,-277.47 914.07,-277.12 907.61,-272.98 917.85,-276.91"/>
</g>
<!-- regex -->
<g id="node17" class="node">
<title>regex</title>
<path fill="#f3f4f6" stroke="#4f46e5" d="M792.47,-266C792.47,-266 762.47,-266 762.47,-266 756.47,-266 750.47,-260 750.47,-254 750.47,-254 750.47,-242 750.47,-242 750.47,-236 756.47,-230 762.47,-230 762.47,-230 792.47,-230 792.47,-230 798.47,-230 804.47,-236 804.47,-242 804.47,-242 804.47,-254 804.47,-254 804.47,-260 798.47,-266 792.47,-266"/>
<text xml:space="preserve" text-anchor="middle" x="777.47" y="-243.8" font-family="Arial" font-size="14.00" fill="#1f2937">regex</text>
</g>
<!-- isExcluded&#45;&gt;regex -->
<g id="edge18" class="edge">
<title>isExcluded&#45;&gt;regex</title>
<path fill="none" stroke="#9ca3af" d="M641.94,-466.08C652.17,-461.33 662.21,-454.82 669.25,-446 716.35,-387 657.72,-338.65 705.25,-280 713.99,-269.22 727.12,-261.95 739.74,-257.1"/>
<polygon fill="#9ca3af" stroke="#9ca3af" points="748.96,-253.96 740.94,-261.44 745.38,-255.18 739.49,-257.18 739.49,-257.18 739.49,-257.18 745.38,-255.18 738.04,-252.92 748.96,-253.96"/>
</g>
<!-- excludePatterns&#45;&gt;config -->
<g id="edge19" class="edge">
<title>excludePatterns&#45;&gt;config</title>
<path fill="none" stroke="#9ca3af" d="M1026.18,-511.25C1074.64,-526.62 1142.5,-548.14 1183.98,-561.29"/>
<polygon fill="#9ca3af" stroke="#9ca3af" points="1193.28,-564.24 1182.39,-565.51 1189.67,-563.1 1183.75,-561.22 1183.75,-561.22 1183.75,-561.22 1189.67,-563.1 1185.11,-556.93 1193.28,-564.24"/>
</g>
<!-- respectExcludePatterns&#45;&gt;config -->
<g id="edge20" class="edge">
<title>respectExcludePatterns&#45;&gt;config</title>
<path fill="none" stroke="#9ca3af" d="M1040.23,-619.55C1087.17,-607.45 1146.58,-592.15 1184.18,-582.46"/>
<polygon fill="#9ca3af" stroke="#9ca3af" points="1193.46,-580.07 1184.9,-586.92 1189.8,-581.01 1183.78,-582.57 1183.78,-582.57 1183.78,-582.57 1189.8,-581.01 1182.65,-578.21 1193.46,-580.07"/>
</g>
<!-- excludedDirs&#45;&gt;excludePatterns -->
<g id="edge21" class="edge">
<title>excludedDirs&#45;&gt;excludePatterns</title>
<path fill="none" stroke="#9ca3af" d="M825.95,-447.39C848.14,-454.59 874.95,-463.28 899.2,-471.14"/>
<polygon fill="#9ca3af" stroke="#9ca3af" points="908.61,-474.19 897.71,-475.39 905.01,-473.03 899.09,-471.11 899.09,-471.11 899.09,-471.11 905.01,-473.03 900.48,-466.83 908.61,-474.19"/>
</g>
<!-- excludedFiles&#45;&gt;excludePatterns -->
<g id="edge22" class="edge">
<title>excludedFiles&#45;&gt;excludePatterns</title>
<path fill="none" stroke="#9ca3af" d="M828.74,-392.09C836.24,-395.55 843.52,-399.8 849.69,-405 873.76,-425.28 861.2,-446.21 885.69,-466 889.79,-469.32 894.32,-472.23 899.07,-474.8"/>
<polygon fill="#9ca3af" stroke="#9ca3af" points="907.99,-479.05 897.03,-478.81 904.58,-477.43 898.97,-474.75 898.97,-474.75 898.97,-474.75 904.58,-477.43 900.91,-470.69 907.99,-479.05"/>
</g>
<!-- regex&#45;&gt;regexPattern -->
<g id="edge23" class="edge">
<title>regex&#45;&gt;regexPattern</title>
<path fill="none" stroke="#9ca3af" d="M804.63,-251.75C831.33,-255.59 873.64,-261.66 908.33,-266.64"/>
<polygon fill="#9ca3af" stroke="#9ca3af" points="918.09,-268.04 907.55,-271.07 914.35,-267.5 908.19,-266.62 908.19,-266.62 908.19,-266.62 914.35,-267.5 908.83,-262.16 918.09,-268.04"/>
</g>
<!-- getDefaultConfig -->
<g id="node18" class="node">
<title>getDefaultConfig</title>
<path fill="#f3f4f6" stroke="#4f46e5" d="M825.61,-802C825.61,-802 729.33,-802 729.33,-802 723.33,-802 717.33,-796 717.33,-790 717.33,-790 717.33,-778 717.33,-778 717.33,-772 723.33,-766 729.33,-766 729.33,-766 825.61,-766 825.61,-766 831.61,-766 837.61,-772 837.61,-778 837.61,-778 837.61,-790 837.61,-790 837.61,-796 831.61,-802 825.61,-802"/>
<text xml:space="preserve" text-anchor="middle" x="777.47" y="-779.8" font-family="Arial" font-size="14.00" fill="#1f2937">getDefaultConfig</text>
</g>
<!-- getDefaultConfig&#45;&gt;language -->
<g id="edge27" class="edge">
<title>getDefaultConfig&#45;&gt;language</title>
<path fill="none" stroke="#9ca3af" d="M797.17,-765.76C813.77,-748.4 837.25,-720.73 849.69,-692 890.08,-598.65 819.9,-543.57 885.69,-466 894.37,-455.76 907.04,-449.39 919.8,-445.43"/>
<polygon fill="#9ca3af" stroke="#9ca3af" points="929.27,-442.95 920.74,-449.84 925.61,-443.9 919.6,-445.48 919.6,-445.48 919.6,-445.48 925.61,-443.9 918.45,-441.13 929.27,-442.95"/>
</g>
<!-- getDefaultConfig&#45;&gt;excludePatterns -->
<g id="edge24" class="edge">
<title>getDefaultConfig&#45;&gt;excludePatterns</title>
<path fill="none" stroke="#9ca3af" d="M794.89,-765.58C810.32,-747.66 833.42,-719.22 849.69,-692 869.89,-658.18 866.47,-645.39 885.69,-611 903.9,-578.41 928.62,-543.42 945.93,-520.07"/>
<polygon fill="#9ca3af" stroke="#9ca3af" points="951.9,-512.1 949.51,-522.8 949.63,-515.13 945.91,-520.11 945.91,-520.11 945.91,-520.11 949.63,-515.13 942.3,-517.41 951.9,-512.1"/>
</g>
<!-- getDefaultConfig&#45;&gt;respectExcludePatterns -->
<g id="edge26" class="edge">
<title>getDefaultConfig&#45;&gt;respectExcludePatterns</title>
<path fill="none" stroke="#9ca3af" d="M790.43,-765.58C808.22,-739.58 844.04,-692.27 885.69,-665 887.5,-663.81 889.37,-662.67 891.28,-661.58"/>
<polygon fill="#9ca3af" stroke="#9ca3af" points="900.08,-657.05 893.25,-665.63 896.72,-658.78 891.19,-661.63 891.19,-661.63 891.19,-661.63 896.72,-658.78 889.13,-657.63 900.08,-657.05"/>
</g>
<!-- maxDepth -->
<g id="node19" class="node">
<title>maxDepth</title>
<path fill="#f3f4f6" stroke="#4f46e5" d="M995.52,-710C995.52,-710 939.71,-710 939.71,-710 933.71,-710 927.71,-704 927.71,-698 927.71,-698 927.71,-686 927.71,-686 927.71,-680 933.71,-674 939.71,-674 939.71,-674 995.52,-674 995.52,-674 1001.52,-674 1007.52,-680 1007.52,-686 1007.52,-686 1007.52,-698 1007.52,-698 1007.52,-704 1001.52,-710 995.52,-710"/>
<text xml:space="preserve" text-anchor="middle" x="967.61" y="-687.8" font-family="Arial" font-size="14.00" fill="#1f2937">maxDepth</text>
</g>
<!-- getDefaultConfig&#45;&gt;maxDepth -->
<g id="edge25" class="edge">
<title>getDefaultConfig&#45;&gt;maxDepth</title>
<path fill="none" stroke="#9ca3af" d="M823.75,-765.62C832.55,-761.5 841.56,-756.89 849.69,-752 867.05,-741.55 868.08,-734.05 885.69,-724 895.43,-718.44 906.33,-713.41 916.89,-709.07"/>
<polygon fill="#9ca3af" stroke="#9ca3af" points="926.16,-705.42 918.5,-713.28 922.64,-706.81 916.85,-709.09 916.85,-709.09 916.85,-709.09 922.64,-706.81 915.2,-704.9 926.16,-705.42"/>
</g>
<!-- supportedExtensions -->
<g id="node20" class="node">
<title>supportedExtensions</title>
<path fill="#f3f4f6" stroke="#4f46e5" d="M1028.99,-802C1028.99,-802 906.24,-802 906.24,-802 900.24,-802 894.24,-796 894.24,-790 894.24,-790 894.24,-778 894.24,-778 894.24,-772 900.24,-766 906.24,-766 906.24,-766 1028.99,-766 1028.99,-766 1034.99,-766 1040.99,-772 1040.99,-778 1040.99,-778 1040.99,-790 1040.99,-790 1040.99,-796 1034.99,-802 1028.99,-802"/>
<text xml:space="preserve" text-anchor="middle" x="967.61" y="-779.8" font-family="Arial" font-size="14.00" fill="#1f2937">supportedExtensions</text>
</g>
<!-- getDefaultConfig&#45;&gt;supportedExtensions -->
<g id="edge28" class="edge">
<title>getDefaultConfig&#45;&gt;supportedExtensions</title>
<path fill="none" stroke="#9ca3af" d="M838,-784C852.29,-784 867.82,-784 882.99,-784"/>
<polygon fill="#9ca3af" stroke="#9ca3af" points="892.72,-784 882.72,-788.5 888.94,-784 882.72,-784 882.72,-784 882.72,-784 888.94,-784 882.72,-779.5 892.72,-784"/>
</g>
<!-- DEFAULT_SUPPORTED_EXTENSIONS -->
<g id="node21" class="node">
<title>DEFAULT_SUPPORTED_EXTENSIONS</title>
<path fill="#f3f4f6" stroke="#4f46e5" d="M1346.26,-802C1346.26,-802 1097.54,-802 1097.54,-802 1091.54,-802 1085.54,-796 1085.54,-790 1085.54,-790 1085.54,-778 1085.54,-778 1085.54,-772 1091.54,-766 1097.54,-766 1097.54,-766 1346.26,-766 1346.26,-766 1352.26,-766 1358.26,-772 1358.26,-778 1358.26,-778 1358.26,-790 1358.26,-790 1358.26,-796 1352.26,-802 1346.26,-802"/>
<text xml:space="preserve" text-anchor="middle" x="1221.9" y="-779.8" font-family="Arial" font-size="14.00" fill="#1f2937">DEFAULT_SUPPORTED_EXTENSIONS</text>
</g>
<!-- getDefaultConfig&#45;&gt;DEFAULT_SUPPORTED_EXTENSIONS -->
<g id="edge29" class="edge">
<title>getDefaultConfig&#45;&gt;DEFAULT_SUPPORTED_EXTENSIONS</title>
<path fill="none" stroke="#9ca3af" d="M838.08,-766.22C853.45,-762.4 870.07,-758.94 885.69,-757 960.88,-747.68 1045.98,-754.75 1111.62,-763.98"/>
<polygon fill="#9ca3af" stroke="#9ca3af" points="1121.19,-765.37 1110.65,-768.39 1117.45,-764.83 1111.3,-763.93 1111.3,-763.93 1111.3,-763.93 1117.45,-764.83 1111.94,-759.48 1121.19,-765.37"/>
</g>
<!-- specialFiles -->
<g id="node22" class="node">
<title>specialFiles</title>
<path fill="#f3f4f6" stroke="#4f46e5" d="M1000.18,-932C1000.18,-932 935.04,-932 935.04,-932 929.04,-932 923.04,-926 923.04,-920 923.04,-920 923.04,-908 923.04,-908 923.04,-902 929.04,-896 935.04,-896 935.04,-896 1000.18,-896 1000.18,-896 1006.18,-896 1012.18,-902 1012.18,-908 1012.18,-908 1012.18,-920 1012.18,-920 1012.18,-926 1006.18,-932 1000.18,-932"/>
<text xml:space="preserve" text-anchor="middle" x="967.61" y="-909.8" font-family="Arial" font-size="14.00" fill="#1f2937">specialFiles</text>
</g>
<!-- getDefaultConfig&#45;&gt;specialFiles -->
<g id="edge30" class="edge">
<title>getDefaultConfig&#45;&gt;specialFiles</title>
<path fill="none" stroke="#9ca3af" d="M798.74,-802.48C813,-815.48 832.52,-833.3 849.69,-849 865.7,-863.65 867.29,-870.48 885.69,-882 893.97,-887.18 903.23,-891.79 912.45,-895.78"/>
<polygon fill="#9ca3af" stroke="#9ca3af" points="921.65,-899.56 910.69,-899.92 918.15,-898.12 912.4,-895.76 912.4,-895.76 912.4,-895.76 918.15,-898.12 914.11,-891.6 921.65,-899.56"/>
</g>
<!-- DEFAULT_SPECIAL_FILES -->
<g id="node23" class="node">
<title>DEFAULT_SPECIAL_FILES</title>
<path fill="#f3f4f6" stroke="#4f46e5" d="M1306.6,-932C1306.6,-932 1137.2,-932 1137.2,-932 1131.2,-932 1125.2,-926 1125.2,-920 1125.2,-920 1125.2,-908 1125.2,-908 1125.2,-902 1131.2,-896 1137.2,-896 1137.2,-896 1306.6,-896 1306.6,-896 1312.6,-896 1318.6,-902 1318.6,-908 1318.6,-908 1318.6,-920 1318.6,-920 1318.6,-926 1312.6,-932 1306.6,-932"/>
<text xml:space="preserve" text-anchor="middle" x="1221.9" y="-909.8" font-family="Arial" font-size="14.00" fill="#1f2937">DEFAULT_SPECIAL_FILES</text>
</g>
<!-- getDefaultConfig&#45;&gt;DEFAULT_SPECIAL_FILES -->
<g id="edge31" class="edge">
<title>getDefaultConfig&#45;&gt;DEFAULT_SPECIAL_FILES</title>
<path fill="none" stroke="#9ca3af" d="M837.68,-801.4C917.81,-824.94 1060.72,-866.93 1147.55,-892.45"/>
<polygon fill="#9ca3af" stroke="#9ca3af" points="1156.95,-895.21 1146.09,-896.71 1153.32,-894.14 1147.36,-892.39 1147.36,-892.39 1147.36,-892.39 1153.32,-894.14 1148.62,-888.07 1156.95,-895.21"/>
</g>
<!-- maxDepth&#45;&gt;config -->
<g id="edge52" class="edge">
<title>maxDepth&#45;&gt;config</title>
<path fill="none" stroke="#9ca3af" d="M1007.81,-680.41C1021.23,-676.06 1036.21,-670.75 1049.54,-665 1097.93,-644.12 1151.02,-614.5 1185.09,-594.56"/>
<polygon fill="#9ca3af" stroke="#9ca3af" points="1193.55,-589.57 1187.22,-598.53 1190.29,-591.49 1184.93,-594.65 1184.93,-594.65 1184.93,-594.65 1190.29,-591.49 1182.65,-590.77 1193.55,-589.57"/>
</g>
<!-- supportedExtensions&#45;&gt;config -->
<g id="edge37" class="edge">
<title>supportedExtensions&#45;&gt;config</title>
<path fill="none" stroke="#9ca3af" d="M991.78,-765.68C1008.04,-752.76 1030.24,-734.97 1049.54,-719 1099.93,-677.31 1157.65,-627.75 1191.6,-598.41"/>
<polygon fill="#9ca3af" stroke="#9ca3af" points="1198.78,-592.21 1194.16,-602.15 1195.92,-594.68 1191.21,-598.75 1191.21,-598.75 1191.21,-598.75 1195.92,-594.68 1188.27,-595.34 1198.78,-592.21"/>
</g>
<!-- supportedExtensions&#45;&gt;DEFAULT_SUPPORTED_EXTENSIONS -->
<g id="edge38" class="edge">
<title>supportedExtensions&#45;&gt;DEFAULT_SUPPORTED_EXTENSIONS</title>
<path fill="none" stroke="#9ca3af" d="M1041.25,-784C1051.84,-784 1063.05,-784 1074.48,-784"/>
<polygon fill="#9ca3af" stroke="#9ca3af" points="1084.29,-784 1074.29,-788.5 1080.5,-784 1074.29,-784 1074.29,-784 1074.29,-784 1080.5,-784 1074.29,-779.5 1084.29,-784"/>
</g>
<!-- specialFiles&#45;&gt;config -->
<g id="edge39" class="edge">
<title>specialFiles&#45;&gt;config</title>
<path fill="none" stroke="#9ca3af" d="M995.54,-895.78C1012.84,-882.96 1034.76,-864.49 1049.54,-844 1074.03,-810.06 1064.99,-793.45 1085.54,-757 1119.15,-697.38 1168.96,-634.52 1197.86,-599.89"/>
<polygon fill="#9ca3af" stroke="#9ca3af" points="1204.29,-592.24 1201.3,-602.79 1201.86,-595.13 1197.85,-599.89 1197.85,-599.89 1197.85,-599.89 1201.86,-595.13 1194.41,-596.99 1204.29,-592.24"/>
</g>
<!-- specialFiles&#45;&gt;DEFAULT_SPECIAL_FILES -->
<g id="edge40" class="edge">
<title>specialFiles&#45;&gt;DEFAULT_SPECIAL_FILES</title>
<path fill="none" stroke="#9ca3af" d="M1012.56,-914C1040.64,-914 1078.35,-914 1113.97,-914"/>
<polygon fill="#9ca3af" stroke="#9ca3af" points="1123.73,-914 1113.73,-918.5 1119.94,-914 1113.73,-914 1113.73,-914 1113.73,-914 1119.94,-914 1113.73,-909.5 1123.73,-914"/>
</g>
<!-- isSupportedFile -->
<g id="node24" class="node">
<title>isSupportedFile</title>
<path fill="#f3f4f6" stroke="#4f46e5" d="M822.11,-894C822.11,-894 732.83,-894 732.83,-894 726.83,-894 720.83,-888 720.83,-882 720.83,-882 720.83,-870 720.83,-870 720.83,-864 726.83,-858 732.83,-858 732.83,-858 822.11,-858 822.11,-858 828.11,-858 834.11,-864 834.11,-870 834.11,-870 834.11,-882 834.11,-882 834.11,-888 828.11,-894 822.11,-894"/>
<text xml:space="preserve" text-anchor="middle" x="777.47" y="-871.8" font-family="Arial" font-size="14.00" fill="#1f2937">isSupportedFile</text>
</g>
<!-- isSupportedFile&#45;&gt;config -->
<g id="edge33" class="edge">
<title>isSupportedFile&#45;&gt;config</title>
<path fill="none" stroke="#9ca3af" d="M834.45,-874.35C892.92,-870.1 984.94,-856.06 1049.54,-811 1073.2,-794.5 1068.99,-780.62 1085.54,-757 1125.12,-700.5 1173.41,-635.83 1200.3,-600.17"/>
<polygon fill="#9ca3af" stroke="#9ca3af" points="1206.24,-592.31 1203.8,-603 1203.96,-595.33 1200.21,-600.29 1200.21,-600.29 1200.21,-600.29 1203.96,-595.33 1196.62,-597.58 1206.24,-592.31"/>
</g>
<!-- isSupportedFile&#45;&gt;supportedExtensions -->
<g id="edge32" class="edge">
<title>isSupportedFile&#45;&gt;supportedExtensions</title>
<path fill="none" stroke="#9ca3af" d="M808.86,-857.56C830.02,-845.08 859.1,-828.63 885.69,-816 892.38,-812.82 899.48,-809.69 906.58,-806.69"/>
<polygon fill="#9ca3af" stroke="#9ca3af" points="915.82,-802.89 908.29,-810.86 912.32,-804.33 906.58,-806.7 906.58,-806.7 906.58,-806.7 912.32,-804.33 904.86,-802.54 915.82,-802.89"/>
</g>
<!-- isSupportedFile&#45;&gt;DEFAULT_SUPPORTED_EXTENSIONS -->
<g id="edge34" class="edge">
<title>isSupportedFile&#45;&gt;DEFAULT_SUPPORTED_EXTENSIONS</title>
<path fill="none" stroke="#9ca3af" d="M800.59,-894.44C821.16,-910.29 853.4,-931.98 885.69,-941 955.82,-960.6 985.33,-975.36 1049.54,-941 1074.97,-927.39 1065.79,-908.02 1085.54,-887 1114.42,-856.25 1153.22,-827.75 1181.88,-808.56"/>
<polygon fill="#9ca3af" stroke="#9ca3af" points="1190.16,-803.09 1184.29,-812.35 1187,-805.17 1181.81,-808.6 1181.81,-808.6 1181.81,-808.6 1187,-805.17 1179.33,-804.84 1190.16,-803.09"/>
</g>
<!-- isSupportedFile&#45;&gt;specialFiles -->
<g id="edge35" class="edge">
<title>isSupportedFile&#45;&gt;specialFiles</title>
<path fill="none" stroke="#9ca3af" d="M834.41,-887.3C858.93,-892.25 887.6,-898.04 911.97,-902.96"/>
<polygon fill="#9ca3af" stroke="#9ca3af" points="921.64,-904.92 910.94,-907.35 917.93,-904.17 911.84,-902.94 911.84,-902.94 911.84,-902.94 917.93,-904.17 912.73,-898.53 921.64,-904.92"/>
</g>
<!-- isSupportedFile&#45;&gt;DEFAULT_SPECIAL_FILES -->
<g id="edge36" class="edge">
<title>isSupportedFile&#45;&gt;DEFAULT_SPECIAL_FILES</title>
<path fill="none" stroke="#9ca3af" d="M791.52,-894.43C809.55,-918.1 844.55,-958.03 885.69,-974 984.57,-1012.38 1109.48,-967.5 1175.39,-937.21"/>
<polygon fill="#9ca3af" stroke="#9ca3af" points="1184.34,-933 1177.2,-941.33 1180.92,-934.61 1175.29,-937.25 1175.29,-937.25 1175.29,-937.25 1180.92,-934.61 1173.38,-933.18 1184.34,-933"/>
</g>
<!-- fileParsers -->
<g id="node25" class="node">
<title>fileParsers</title>
<path fill="#f3f4f6" stroke="#4f46e5" d="M478,-683C478,-683 419.86,-683 419.86,-683 413.86,-683 407.86,-677 407.86,-671 407.86,-671 407.86,-659 407.86,-659 407.86,-653 413.86,-647 419.86,-647 419.86,-647 478,-647 478,-647 484,-647 490,-653 490,-659 490,-659 490,-671 490,-671 490,-677 484,-683 478,-683"/>
<text xml:space="preserve" text-anchor="middle" x="448.93" y="-660.8" font-family="Arial" font-size="14.00" fill="#1f2937">fileParsers</text>
</g>
<!-- escapeContent -->
<g id="node26" class="node">
<title>escapeContent</title>
<path fill="#f3f4f6" stroke="#4f46e5" d="M820.56,-683C820.56,-683 734.38,-683 734.38,-683 728.38,-683 722.38,-677 722.38,-671 722.38,-671 722.38,-659 722.38,-659 722.38,-653 728.38,-647 734.38,-647 734.38,-647 820.56,-647 820.56,-647 826.56,-647 832.56,-653 832.56,-659 832.56,-659 832.56,-671 832.56,-671 832.56,-677 826.56,-683 820.56,-683"/>
<text xml:space="preserve" text-anchor="middle" x="777.47" y="-660.8" font-family="Arial" font-size="14.00" fill="#1f2937">escapeContent</text>
</g>
<!-- fileParsers&#45;&gt;escapeContent -->
<g id="edge41" class="edge">
<title>fileParsers&#45;&gt;escapeContent</title>
<path fill="none" stroke="#9ca3af" d="M490.16,-681.36C502.78,-685.71 516.92,-689.82 530.28,-692 591.24,-701.97 607.96,-699.6 669.25,-692 683.01,-690.29 697.53,-687.4 711.3,-684.13"/>
<polygon fill="#9ca3af" stroke="#9ca3af" points="720.96,-681.73 712.34,-688.51 717.29,-682.64 711.26,-684.14 711.26,-684.14 711.26,-684.14 717.29,-682.64 710.17,-679.77 720.96,-681.73"/>
</g>
<!-- escapeHtmlContent -->
<g id="node27" class="node">
<title>escapeHtmlContent</title>
<path fill="#f3f4f6" stroke="#4f46e5" d="M657.24,-683C657.24,-683 542.29,-683 542.29,-683 536.29,-683 530.29,-677 530.29,-671 530.29,-671 530.29,-659 530.29,-659 530.29,-653 536.29,-647 542.29,-647 542.29,-647 657.24,-647 657.24,-647 663.24,-647 669.24,-653 669.24,-659 669.24,-659 669.24,-671 669.24,-671 669.24,-677 663.24,-683 657.24,-683"/>
<text xml:space="preserve" text-anchor="middle" x="599.77" y="-660.8" font-family="Arial" font-size="14.00" fill="#1f2937">escapeHtmlContent</text>
</g>
<!-- fileParsers&#45;&gt;escapeHtmlContent -->
<g id="edge42" class="edge">
<title>fileParsers&#45;&gt;escapeHtmlContent</title>
<path fill="none" stroke="#9ca3af" d="M490.21,-665C499.15,-665 508.94,-665 518.85,-665"/>
<polygon fill="#9ca3af" stroke="#9ca3af" points="528.85,-665 518.85,-669.5 525.07,-665 518.85,-665 518.85,-665 518.85,-665 525.07,-665 518.85,-660.5 528.85,-665"/>
</g>
<!-- escapeHtmlContent&#45;&gt;escapeContent -->
<g id="edge43" class="edge">
<title>escapeHtmlContent&#45;&gt;escapeContent</title>
<path fill="none" stroke="#9ca3af" d="M669.71,-665C683.3,-665 697.53,-665 711.01,-665"/>
<polygon fill="#9ca3af" stroke="#9ca3af" points="720.9,-665 710.9,-669.5 717.12,-665 710.9,-665 710.9,-665 710.9,-665 717.12,-665 710.9,-660.5 720.9,-665"/>
</g>
<!-- scanDirectory -->
<g id="node28" class="node">
<title>scanDirectory</title>
<path fill="#f3f4f6" stroke="#4f46e5" d="M122.26,-487C122.26,-487 44.68,-487 44.68,-487 38.68,-487 32.68,-481 32.68,-475 32.68,-475 32.68,-463 32.68,-463 32.68,-457 38.68,-451 44.68,-451 44.68,-451 122.26,-451 122.26,-451 128.26,-451 134.26,-457 134.26,-463 134.26,-463 134.26,-475 134.26,-475 134.26,-481 128.26,-487 122.26,-487"/>
<text xml:space="preserve" text-anchor="middle" x="83.47" y="-464.8" font-family="Arial" font-size="14.00" fill="#1f2937">scanDirectory</text>
</g>
<!-- scanDirectory&#45;&gt;getCurrentLanguage -->
<g id="edge48" class="edge">
<title>scanDirectory&#45;&gt;getCurrentLanguage</title>
<path fill="none" stroke="#9ca3af" d="M86.65,-450.78C93.53,-402.4 119.47,-270.53 202.94,-213 353.87,-108.96 584.14,-144.67 701.71,-172.98"/>
<polygon fill="#9ca3af" stroke="#9ca3af" points="711.21,-175.31 700.42,-177.29 707.53,-174.41 701.5,-172.92 701.5,-172.92 701.5,-172.92 707.53,-174.41 702.57,-168.55 711.21,-175.31"/>
</g>
<!-- scanDirectory&#45;&gt;config -->
<g id="edge45" class="edge">
<title>scanDirectory&#45;&gt;config</title>
<path fill="none" stroke="#9ca3af" d="M85.01,-450.74C87.75,-395.01 104.19,-226.16 202.94,-148 288.95,-79.92 338.23,-118 447.93,-118 447.93,-118 447.93,-118 778.47,-118 903.24,-118 954.6,-110.04 1049.54,-191 1162.18,-287.05 1204.05,-472.05 1216.47,-543.67"/>
<polygon fill="#9ca3af" stroke="#9ca3af" points="1218.08,-553.34 1212,-544.22 1217.46,-549.61 1216.44,-543.48 1216.44,-543.48 1216.44,-543.48 1217.46,-549.61 1220.88,-542.74 1218.08,-553.34"/>
</g>
<!-- scanDirectory&#45;&gt;lang -->
<g id="edge47" class="edge">
<title>scanDirectory&#45;&gt;lang</title>
<path fill="none" stroke="#9ca3af" d="M126.42,-450.52C148.96,-440.79 177.31,-428.87 202.94,-419 291.08,-385.07 311.23,-368.81 403.58,-349 457.76,-337.38 522.03,-333.66 561.61,-332.5"/>
<polygon fill="#9ca3af" stroke="#9ca3af" points="571.35,-332.25 561.47,-337 567.57,-332.35 561.36,-332.51 561.36,-332.51 561.36,-332.51 567.57,-332.35 561.24,-328.01 571.35,-332.25"/>
</g>
<!-- scanDirectory&#45;&gt;isExcluded -->
<g id="edge49" class="edge">
<title>scanDirectory&#45;&gt;isExcluded</title>
<path fill="none" stroke="#9ca3af" d="M134.61,-470.93C155.71,-471.68 180.51,-472.48 202.94,-473 325.96,-475.85 470.54,-477.16 546.33,-477.69"/>
<polygon fill="#9ca3af" stroke="#9ca3af" points="556.23,-477.76 546.2,-482.19 552.45,-477.73 546.23,-477.69 546.23,-477.69 546.23,-477.69 552.45,-477.73 546.26,-473.19 556.23,-477.76"/>
</g>
<!-- scanDirectory&#45;&gt;maxDepth -->
<g id="edge44" class="edge">
<title>scanDirectory&#45;&gt;maxDepth</title>
<path fill="none" stroke="#9ca3af" d="M91.33,-487.39C105.9,-523.81 143.56,-605.1 202.94,-646 428.27,-801.21 785.44,-736.42 916.38,-705.19"/>
<polygon fill="#9ca3af" stroke="#9ca3af" points="926.06,-702.83 917.4,-709.57 922.38,-703.73 916.34,-705.19 916.34,-705.19 916.34,-705.19 922.38,-703.73 915.28,-700.82 926.06,-702.83"/>
</g>
<!-- scanDirectory&#45;&gt;isSupportedFile -->
<g id="edge51" class="edge">
<title>scanDirectory&#45;&gt;isSupportedFile</title>
<path fill="none" stroke="#9ca3af" d="M85.98,-487.3C91.33,-539.41 114.11,-689.51 202.94,-763 350.85,-885.36 593.29,-888.59 709.82,-881.94"/>
<polygon fill="#9ca3af" stroke="#9ca3af" points="719.48,-881.34 709.78,-886.45 715.71,-881.58 709.5,-881.96 709.5,-881.96 709.5,-881.96 715.71,-881.58 709.23,-877.47 719.48,-881.34"/>
</g>
<!-- getDirectoryDescription -->
<g id="node29" class="node">
<title>getDirectoryDescription</title>
<path fill="#f3f4f6" stroke="#4f46e5" d="M354.01,-464C354.01,-464 216.51,-464 216.51,-464 210.51,-464 204.51,-458 204.51,-452 204.51,-452 204.51,-440 204.51,-440 204.51,-434 210.51,-428 216.51,-428 216.51,-428 354.01,-428 354.01,-428 360.01,-428 366.01,-434 366.01,-440 366.01,-440 366.01,-452 366.01,-452 366.01,-458 360.01,-464 354.01,-464"/>
<text xml:space="preserve" text-anchor="middle" x="285.26" y="-441.8" font-family="Arial" font-size="14.00" fill="#1f2937">getDirectoryDescription</text>
</g>
<!-- scanDirectory&#45;&gt;getDirectoryDescription -->
<g id="edge46" class="edge">
<title>scanDirectory&#45;&gt;getDirectoryDescription</title>
<path fill="none" stroke="#9ca3af" d="M134.63,-463.23C152.38,-461.18 172.94,-458.82 193.03,-456.5"/>
<polygon fill="#9ca3af" stroke="#9ca3af" points="202.91,-455.36 193.49,-460.98 199.16,-455.8 192.98,-456.51 192.98,-456.51 192.98,-456.51 199.16,-455.8 192.46,-452.04 202.91,-455.36"/>
</g>
<!-- processFile -->
<g id="node30" class="node">
<title>processFile</title>
<path fill="#f3f4f6" stroke="#4f46e5" d="M317.05,-637C317.05,-637 253.47,-637 253.47,-637 247.47,-637 241.47,-631 241.47,-625 241.47,-625 241.47,-613 241.47,-613 241.47,-607 247.47,-601 253.47,-601 253.47,-601 317.05,-601 317.05,-601 323.05,-601 329.05,-607 329.05,-613 329.05,-613 329.05,-625 329.05,-625 329.05,-631 323.05,-637 317.05,-637"/>
<text xml:space="preserve" text-anchor="middle" x="285.26" y="-614.8" font-family="Arial" font-size="14.00" fill="#1f2937">processFile</text>
</g>
<!-- scanDirectory&#45;&gt;processFile -->
<g id="edge50" class="edge">
<title>scanDirectory&#45;&gt;processFile</title>
<path fill="none" stroke="#9ca3af" d="M108.97,-487.39C144.64,-514.17 210.97,-563.98 251.02,-594.04"/>
<polygon fill="#9ca3af" stroke="#9ca3af" points="258.9,-599.96 248.2,-597.55 255.87,-597.69 250.9,-593.96 250.9,-593.96 250.9,-593.96 255.87,-597.69 253.6,-590.36 258.9,-599.96"/>
</g>
<!-- getDirectoryDescription&#45;&gt;getCurrentLanguage -->
<g id="edge56" class="edge">
<title>getDirectoryDescription&#45;&gt;getCurrentLanguage</title>
<path fill="none" stroke="#9ca3af" d="M366.49,-453.14C455.19,-456.13 595.3,-445.37 669.25,-359 710.48,-310.85 662.9,-268.16 705.25,-221 705.71,-220.49 706.17,-219.99 706.65,-219.51"/>
<polygon fill="#9ca3af" stroke="#9ca3af" points="714.2,-213.16 709.44,-223.04 711.31,-215.6 706.55,-219.6 706.55,-219.6 706.55,-219.6 711.31,-215.6 703.65,-216.15 714.2,-213.16"/>
</g>
<!-- getDirectoryDescription&#45;&gt;config -->
<g id="edge58" class="edge">
<title>getDirectoryDescription&#45;&gt;config</title>
<path fill="none" stroke="#9ca3af" d="M328.7,-464.44C376.8,-484.72 457.92,-517.06 530.28,-537 771.82,-603.57 1078.47,-585.53 1183.59,-576.59"/>
<polygon fill="#9ca3af" stroke="#9ca3af" points="1193.33,-575.73 1183.77,-581.09 1189.57,-576.06 1183.37,-576.61 1183.37,-576.61 1183.37,-576.61 1189.57,-576.06 1182.98,-572.12 1193.33,-575.73"/>
</g>
<!-- getDirectoryDescription&#45;&gt;lang -->
<g id="edge55" class="edge">
<title>getDirectoryDescription&#45;&gt;lang</title>
<path fill="none" stroke="#9ca3af" d="M314.64,-427.52C337.78,-413.13 371.74,-393.57 403.58,-381 456.79,-360 521.77,-345.82 561.71,-338.32"/>
<polygon fill="#9ca3af" stroke="#9ca3af" points="571.32,-336.56 562.3,-342.79 567.6,-337.24 561.49,-338.36 561.49,-338.36 561.49,-338.36 567.6,-337.24 560.68,-333.94 571.32,-336.56"/>
</g>
<!-- descriptions -->
<g id="node31" class="node">
<title>descriptions</title>
<path fill="#f3f4f6" stroke="#4f46e5" d="M482.28,-426C482.28,-426 415.58,-426 415.58,-426 409.58,-426 403.58,-420 403.58,-414 403.58,-414 403.58,-402 403.58,-402 403.58,-396 409.58,-390 415.58,-390 415.58,-390 482.28,-390 482.28,-390 488.28,-390 494.28,-396 494.28,-402 494.28,-402 494.28,-414 494.28,-414 494.28,-420 488.28,-426 482.28,-426"/>
<text xml:space="preserve" text-anchor="middle" x="448.93" y="-403.8" font-family="Arial" font-size="14.00" fill="#1f2937">descriptions</text>
</g>
<!-- getDirectoryDescription&#45;&gt;descriptions -->
<g id="edge57" class="edge">
<title>getDirectoryDescription&#45;&gt;descriptions</title>
<path fill="none" stroke="#9ca3af" d="M364.73,-427.56C374.11,-425.35 383.53,-423.14 392.49,-421.03"/>
<polygon fill="#9ca3af" stroke="#9ca3af" points="401.97,-418.8 393.26,-425.47 398.29,-419.67 392.23,-421.09 392.23,-421.09 392.23,-421.09 398.29,-419.67 391.2,-416.71 401.97,-418.8"/>
</g>
<!-- processFile&#45;&gt;fileParsers -->
<g id="edge53" class="edge">
<title>processFile&#45;&gt;fileParsers</title>
<path fill="none" stroke="#9ca3af" d="M329.16,-631.21C349.97,-637.13 375.11,-644.28 396.89,-650.48"/>
<polygon fill="#9ca3af" stroke="#9ca3af" points="406.44,-653.2 395.59,-654.79 402.8,-652.16 396.82,-650.46 396.82,-650.46 396.82,-650.46 402.8,-652.16 398.05,-646.13 406.44,-653.2"/>
</g>
<!-- processFile&#45;&gt;escapeContent -->
<g id="edge54" class="edge">
<title>processFile&#45;&gt;escapeContent</title>
<path fill="none" stroke="#9ca3af" d="M329.32,-618.38C400.49,-617.98 546.95,-619.75 669.25,-638 682.96,-640.05 697.46,-643.08 711.22,-646.39"/>
<polygon fill="#9ca3af" stroke="#9ca3af" points="720.89,-648.8 710.1,-650.75 717.22,-647.89 711.18,-646.38 711.18,-646.38 711.18,-646.38 717.22,-647.89 712.27,-642.02 720.89,-648.8"/>
</g>
<!-- descriptions&#45;&gt;config -->
<g id="edge59" class="edge">
<title>descriptions&#45;&gt;config</title>
<path fill="none" stroke="#9ca3af" d="M459.26,-426.38C471.93,-449.19 496.88,-487.24 530.28,-505 645.05,-566.01 1056.95,-572.48 1183.59,-573.01"/>
<polygon fill="#9ca3af" stroke="#9ca3af" points="1193.38,-573.04 1183.37,-577.51 1189.6,-573.03 1183.38,-573.01 1183.38,-573.01 1183.38,-573.01 1189.6,-573.03 1183.39,-568.51 1193.38,-573.04"/>
</g>
<!-- descriptions&#45;&gt;lang -->
<g id="edge60" class="edge">
<title>descriptions&#45;&gt;lang</title>
<path fill="none" stroke="#9ca3af" d="M485.96,-389.6C509.19,-377.74 539.3,-362.37 562.56,-350.49"/>
<polygon fill="#9ca3af" stroke="#9ca3af" points="571.31,-346.02 564.45,-354.57 567.95,-347.74 562.41,-350.57 562.41,-350.57 562.41,-350.57 567.95,-347.74 560.36,-346.56 571.31,-346.02"/>
</g>
</g>
</svg>
