<?xml version="1.0" encoding="UTF-8" standalone="no"?>
<!DOCTYPE svg PUBLIC "-//W3C//DTD SVG 1.1//EN"
 "http://www.w3.org/Graphics/SVG/1.1/DTD/svg11.dtd">
<!-- Generated by graphviz version 15.0.0 (0)
 -->
<!-- Title: Dependency Graph Pages: 1 -->
<svg width="2153pt" height="1168pt"
 viewBox="0.00 0.00 2153.00 1168.00" xmlns="http://www.w3.org/2000/svg" xmlns:xlink="http://www.w3.org/1999/xlink">
<g id="graph0" class="graph" transform="scale(1 1) rotate(0) translate(4 1164)">
<title>Dependency Graph</title>
<polygon fill="white" stroke="none" points="-4,4 -4,-1164 2149.02,-1164 2149.02,4 -4,4"/>
<!-- injectDeepSeek.js -->
<g id="node1" class="node">
<title>injectDeepSeek.js</title>
<path fill="#4f46e5" stroke="#4f46e5" stroke-width="2" d="M140.97,-837C140.97,-837 21.35,-837 21.35,-837 15.35,-837 9.35,-831 9.35,-825 9.35,-825 9.35,-813 9.35,-813 9.35,-807 15.35,-801 21.35,-801 21.35,-801 140.97,-801 140.97,-801 146.97,-801 152.97,-807 152.97,-813 152.97,-813 152.97,-825 152.97,-825 152.97,-831 146.97,-837 140.97,-837"/>
<text xml:space="preserve" text-anchor="middle" x="81.16" y="-814.8" font-family="Arial" font-size="14.00" fill="#ffffff">⭐ injectDeepSeek.js</text>
</g>
<!-- EnhancedPageObserver -->
<g id="node2" class="node">
<title>EnhancedPageObserver</title>
<path fill="#f3f4f6" stroke="#4f46e5" d="M526.71,-605C526.71,-605 381.39,-605 381.39,-605 375.39,-605 369.39,-599 369.39,-593 369.39,-593 369.39,-581 369.39,-581 369.39,-575 375.39,-569 381.39,-569 381.39,-569 526.71,-569 526.71,-569 532.71,-569 538.71,-575 538.71,-581 538.71,-581 538.71,-593 538.71,-593 538.71,-599 532.71,-605 526.71,-605"/>
<text xml:space="preserve" text-anchor="middle" x="454.05" y="-582.8" font-family="Arial" font-size="14.00" fill="#1f2937">EnhancedPageObserver</text>
</g>
<!-- constructor -->
<g id="node3" class="node">
<title>constructor</title>
<path fill="#f3f4f6" stroke="#4f46e5" d="M1043.79,-834C1043.79,-834 982.54,-834 982.54,-834 976.54,-834 970.54,-828 970.54,-822 970.54,-822 970.54,-810 970.54,-810 970.54,-804 976.54,-798 982.54,-798 982.54,-798 1043.79,-798 1043.79,-798 1049.79,-798 1055.79,-804 1055.79,-810 1055.79,-810 1055.79,-822 1055.79,-822 1055.79,-828 1049.79,-834 1043.79,-834"/>
<text xml:space="preserve" text-anchor="middle" x="1013.17" y="-811.8" font-family="Arial" font-size="14.00" fill="#1f2937">constructor</text>
</g>
<!-- EnhancedPageObserver&#45;&gt;constructor -->
<g id="edge1" class="edge">
<title>EnhancedPageObserver&#45;&gt;constructor</title>
<path fill="none" stroke="#9ca3af" d="M460.01,-605.46C471.98,-645.97 506.61,-742.34 574.71,-784 695.6,-857.95 871.89,-841.29 959.16,-826.69"/>
<polygon fill="#9ca3af" stroke="#9ca3af" points="968.91,-824.99 959.83,-831.14 965.19,-825.64 959.06,-826.7 959.06,-826.7 959.06,-826.7 965.19,-825.64 958.29,-822.27 968.91,-824.99"/>
</g>
<!-- syncPageState -->
<g id="node4" class="node">
<title>syncPageState</title>
<path fill="#f3f4f6" stroke="#4f46e5" d="M673.28,-256C673.28,-256 587.1,-256 587.1,-256 581.1,-256 575.1,-250 575.1,-244 575.1,-244 575.1,-232 575.1,-232 575.1,-226 581.1,-220 587.1,-220 587.1,-220 673.28,-220 673.28,-220 679.28,-220 685.28,-226 685.28,-232 685.28,-232 685.28,-244 685.28,-244 685.28,-250 679.28,-256 673.28,-256"/>
<text xml:space="preserve" text-anchor="middle" x="630.19" y="-233.8" font-family="Arial" font-size="14.00" fill="#1f2937">syncPageState</text>
</g>
<!-- EnhancedPageObserver&#45;&gt;syncPageState -->
<g id="edge2" class="edge">
<title>EnhancedPageObserver&#45;&gt;syncPageState</title>
<path fill="none" stroke="#9ca3af" d="M460.77,-568.57C475.6,-522.12 518.16,-397.28 574.71,-304 583.12,-290.13 594.27,-276.09 604.28,-264.54"/>
<polygon fill="#9ca3af" stroke="#9ca3af" points="610.85,-257.15 607.57,-267.62 608.34,-259.98 604.21,-264.63 604.21,-264.63 604.21,-264.63 608.34,-259.98 600.84,-261.64 610.85,-257.15"/>
</g>
<!-- isAuthPage -->
<g id="node5" class="node">
<title>isAuthPage</title>
<path fill="#f3f4f6" stroke="#4f46e5" d="M1403.46,-298C1403.46,-298 1339.86,-298 1339.86,-298 1333.86,-298 1327.86,-292 1327.86,-286 1327.86,-286 1327.86,-274 1327.86,-274 1327.86,-268 1333.86,-262 1339.86,-262 1339.86,-262 1403.46,-262 1403.46,-262 1409.46,-262 1415.46,-268 1415.46,-274 1415.46,-274 1415.46,-286 1415.46,-286 1415.46,-292 1409.46,-298 1403.46,-298"/>
<text xml:space="preserve" text-anchor="middle" x="1371.66" y="-275.8" font-family="Arial" font-size="14.00" fill="#1f2937">isAuthPage</text>
</g>
<!-- EnhancedPageObserver&#45;&gt;isAuthPage -->
<g id="edge3" class="edge">
<title>EnhancedPageObserver&#45;&gt;isAuthPage</title>
<path fill="none" stroke="#9ca3af" d="M460.13,-568.71C472.32,-528.57 507.38,-432.89 574.71,-390 660.65,-335.27 700.7,-365 802.59,-365 802.59,-365 802.59,-365 1014.17,-365 1124.31,-365 1248.51,-326.13 1317.39,-300.96"/>
<polygon fill="#9ca3af" stroke="#9ca3af" points="1326.4,-297.62 1318.59,-305.32 1322.86,-298.94 1317.02,-301.1 1317.02,-301.1 1317.02,-301.1 1322.86,-298.94 1315.46,-296.88 1326.4,-297.62"/>
</g>
<!-- findChatInputElement -->
<g id="node6" class="node">
<title>findChatInputElement</title>
<path fill="#f3f4f6" stroke="#4f46e5" d="M1434.98,-628C1434.98,-628 1308.34,-628 1308.34,-628 1302.34,-628 1296.34,-622 1296.34,-616 1296.34,-616 1296.34,-604 1296.34,-604 1296.34,-598 1302.34,-592 1308.34,-592 1308.34,-592 1434.98,-592 1434.98,-592 1440.98,-592 1446.98,-598 1446.98,-604 1446.98,-604 1446.98,-616 1446.98,-616 1446.98,-622 1440.98,-628 1434.98,-628"/>
<text xml:space="preserve" text-anchor="middle" x="1371.66" y="-605.8" font-family="Arial" font-size="14.00" fill="#1f2937">findChatInputElement</text>
</g>
<!-- EnhancedPageObserver&#45;&gt;findChatInputElement -->
<g id="edge4" class="edge">
<title>EnhancedPageObserver&#45;&gt;findChatInputElement</title>
<path fill="none" stroke="#9ca3af" d="M538.9,-594.16C609.25,-599.54 712.4,-606 802.59,-606 802.59,-606 802.59,-606 1014.17,-606 1106.74,-606 1212.84,-607.37 1285.05,-608.5"/>
<polygon fill="#9ca3af" stroke="#9ca3af" points="1294.68,-608.65 1284.61,-612.99 1290.9,-608.59 1284.68,-608.49 1284.68,-608.49 1284.68,-608.49 1290.9,-608.59 1284.75,-604 1294.68,-608.65"/>
</g>
<!-- pathname -->
<g id="node7" class="node">
<title>pathname</title>
<path fill="#f3f4f6" stroke="#4f46e5" d="M1588.52,-498C1588.52,-498 1534.26,-498 1534.26,-498 1528.26,-498 1522.26,-492 1522.26,-486 1522.26,-486 1522.26,-474 1522.26,-474 1522.26,-468 1528.26,-462 1534.26,-462 1534.26,-462 1588.52,-462 1588.52,-462 1594.52,-462 1600.52,-468 1600.52,-474 1600.52,-474 1600.52,-486 1600.52,-486 1600.52,-492 1594.52,-498 1588.52,-498"/>
<text xml:space="preserve" text-anchor="middle" x="1561.39" y="-475.8" font-family="Arial" font-size="14.00" fill="#1f2937">pathname</text>
</g>
<!-- EnhancedPageObserver&#45;&gt;pathname -->
<g id="edge5" class="edge">
<title>EnhancedPageObserver&#45;&gt;pathname</title>
<path fill="none" stroke="#9ca3af" d="M477.29,-568.74C500.2,-551.02 537.69,-524.96 574.71,-512 670.92,-478.32 700.65,-486 802.59,-486 802.59,-486 802.59,-486 1201.58,-486 1312.09,-486 1441.72,-483.12 1510.92,-481.35"/>
<polygon fill="#9ca3af" stroke="#9ca3af" points="1520.68,-481.1 1510.8,-485.85 1516.9,-481.2 1510.68,-481.36 1510.68,-481.36 1510.68,-481.36 1516.9,-481.2 1510.57,-476.86 1520.68,-481.1"/>
</g>
<!-- bodyText -->
<g id="node8" class="node">
<title>bodyText</title>
<path fill="#f3f4f6" stroke="#4f46e5" d="M1790.66,-206C1790.66,-206 1741.08,-206 1741.08,-206 1735.08,-206 1729.08,-200 1729.08,-194 1729.08,-194 1729.08,-182 1729.08,-182 1729.08,-176 1735.08,-170 1741.08,-170 1741.08,-170 1790.66,-170 1790.66,-170 1796.66,-170 1802.66,-176 1802.66,-182 1802.66,-182 1802.66,-194 1802.66,-194 1802.66,-200 1796.66,-206 1790.66,-206"/>
<text xml:space="preserve" text-anchor="middle" x="1765.87" y="-183.8" font-family="Arial" font-size="14.00" fill="#1f2937">bodyText</text>
</g>
<!-- EnhancedPageObserver&#45;&gt;bodyText -->
<g id="edge6" class="edge">
<title>EnhancedPageObserver&#45;&gt;bodyText</title>
<path fill="none" stroke="#9ca3af" d="M506.9,-568.55C527.74,-561.77 552.14,-554.63 574.71,-550 674.47,-529.53 700.75,-526 802.59,-526 802.59,-526 802.59,-526 1372.66,-526 1491.69,-526 1552.19,-587.58 1639.8,-507 1716.28,-436.66 1628.46,-368.5 1675.8,-276 1688.51,-251.16 1710.86,-229.11 1730,-213.3"/>
<polygon fill="#9ca3af" stroke="#9ca3af" points="1737.56,-207.24 1732.57,-217 1734.61,-209.6 1729.75,-213.49 1729.75,-213.49 1729.75,-213.49 1734.61,-209.6 1726.94,-209.98 1737.56,-207.24"/>
</g>
<!-- hasPasswordField -->
<g id="node9" class="node">
<title>hasPasswordField</title>
<path fill="#f3f4f6" stroke="#4f46e5" d="M1614.58,-444C1614.58,-444 1508.2,-444 1508.2,-444 1502.2,-444 1496.2,-438 1496.2,-432 1496.2,-432 1496.2,-420 1496.2,-420 1496.2,-414 1502.2,-408 1508.2,-408 1508.2,-408 1614.58,-408 1614.58,-408 1620.58,-408 1626.58,-414 1626.58,-420 1626.58,-420 1626.58,-432 1626.58,-432 1626.58,-438 1620.58,-444 1614.58,-444"/>
<text xml:space="preserve" text-anchor="middle" x="1561.39" y="-421.8" font-family="Arial" font-size="14.00" fill="#1f2937">hasPasswordField</text>
</g>
<!-- EnhancedPageObserver&#45;&gt;hasPasswordField -->
<g id="edge7" class="edge">
<title>EnhancedPageObserver&#45;&gt;hasPasswordField</title>
<path fill="none" stroke="#9ca3af" d="M470.34,-568.55C491.25,-544.65 531.19,-503.63 574.71,-483 667.57,-439 699.84,-444 802.59,-444 802.59,-444 802.59,-444 1201.58,-444 1299.62,-444 1412.53,-437.21 1485.1,-431.98"/>
<polygon fill="#9ca3af" stroke="#9ca3af" points="1494.73,-431.27 1485.09,-436.49 1490.96,-431.55 1484.76,-432 1484.76,-432 1484.76,-432 1490.96,-431.55 1484.43,-427.51 1494.73,-431.27"/>
</g>
<!-- hasEmailField -->
<g id="node10" class="node">
<title>hasEmailField</title>
<path fill="#f3f4f6" stroke="#4f46e5" d="M1601.35,-390C1601.35,-390 1521.43,-390 1521.43,-390 1515.43,-390 1509.43,-384 1509.43,-378 1509.43,-378 1509.43,-366 1509.43,-366 1509.43,-360 1515.43,-354 1521.43,-354 1521.43,-354 1601.35,-354 1601.35,-354 1607.35,-354 1613.35,-360 1613.35,-366 1613.35,-366 1613.35,-378 1613.35,-378 1613.35,-384 1607.35,-390 1601.35,-390"/>
<text xml:space="preserve" text-anchor="middle" x="1561.39" y="-367.8" font-family="Arial" font-size="14.00" fill="#1f2937">hasEmailField</text>
</g>
<!-- EnhancedPageObserver&#45;&gt;hasEmailField -->
<g id="edge8" class="edge">
<title>EnhancedPageObserver&#45;&gt;hasEmailField</title>
<path fill="none" stroke="#9ca3af" d="M464.42,-568.88C481.64,-537.56 521.51,-473.71 574.71,-443 663.71,-391.64 699.84,-404 802.59,-404 802.59,-404 802.59,-404 1201.58,-404 1305.91,-404 1426.64,-390.41 1498.09,-380.94"/>
<polygon fill="#9ca3af" stroke="#9ca3af" points="1507.91,-379.62 1498.6,-385.41 1504.17,-380.13 1498,-380.96 1498,-380.96 1498,-380.96 1504.17,-380.13 1497.4,-376.5 1507.91,-379.62"/>
</g>
<!-- elements -->
<g id="node11" class="node">
<title>elements</title>
<path fill="#f3f4f6" stroke="#4f46e5" d="M1790.27,-804C1790.27,-804 1741.47,-804 1741.47,-804 1735.47,-804 1729.47,-798 1729.47,-792 1729.47,-792 1729.47,-780 1729.47,-780 1729.47,-774 1735.47,-768 1741.47,-768 1741.47,-768 1790.27,-768 1790.27,-768 1796.27,-768 1802.27,-774 1802.27,-780 1802.27,-780 1802.27,-792 1802.27,-792 1802.27,-798 1796.27,-804 1790.27,-804"/>
<text xml:space="preserve" text-anchor="middle" x="1765.87" y="-781.8" font-family="Arial" font-size="14.00" fill="#1f2937">elements</text>
</g>
<!-- EnhancedPageObserver&#45;&gt;elements -->
<g id="edge9" class="edge">
<title>EnhancedPageObserver&#45;&gt;elements</title>
<path fill="none" stroke="#9ca3af" d="M473.1,-605.42C495.06,-626.67 534.25,-661 574.71,-679 635.39,-705.99 655.83,-697.34 721.67,-706 1104.74,-756.41 1571.44,-778.28 1718.33,-784.23"/>
<polygon fill="#9ca3af" stroke="#9ca3af" points="1727.93,-784.62 1717.76,-788.72 1724.15,-784.47 1717.94,-784.22 1717.94,-784.22 1717.94,-784.22 1724.15,-784.47 1718.12,-779.72 1727.93,-784.62"/>
</g>
<!-- visibleElement -->
<g id="node12" class="node">
<title>visibleElement</title>
<path fill="#f3f4f6" stroke="#4f46e5" d="M1602.52,-758C1602.52,-758 1520.26,-758 1520.26,-758 1514.26,-758 1508.26,-752 1508.26,-746 1508.26,-746 1508.26,-734 1508.26,-734 1508.26,-728 1514.26,-722 1520.26,-722 1520.26,-722 1602.52,-722 1602.52,-722 1608.52,-722 1614.52,-728 1614.52,-734 1614.52,-734 1614.52,-746 1614.52,-746 1614.52,-752 1608.52,-758 1602.52,-758"/>
<text xml:space="preserve" text-anchor="middle" x="1561.39" y="-735.8" font-family="Arial" font-size="14.00" fill="#1f2937">visibleElement</text>
</g>
<!-- EnhancedPageObserver&#45;&gt;visibleElement -->
<g id="edge10" class="edge">
<title>EnhancedPageObserver&#45;&gt;visibleElement</title>
<path fill="none" stroke="#9ca3af" d="M485.52,-605.47C509.11,-619.03 543.01,-636.95 574.71,-648 672.28,-682 699.27,-694 802.59,-694 802.59,-694 802.59,-694 1201.58,-694 1305.82,-694 1425.72,-713.34 1497.16,-726.94"/>
<polygon fill="#9ca3af" stroke="#9ca3af" points="1506.57,-728.75 1495.9,-731.28 1502.86,-728.04 1496.75,-726.86 1496.75,-726.86 1496.75,-726.86 1502.86,-728.04 1497.6,-722.44 1506.57,-728.75"/>
</g>
<!-- isVisible -->
<g id="node13" class="node">
<title>isVisible</title>
<path fill="#f3f4f6" stroke="#4f46e5" d="M1995.16,-758C1995.16,-758 1951.8,-758 1951.8,-758 1945.8,-758 1939.8,-752 1939.8,-746 1939.8,-746 1939.8,-734 1939.8,-734 1939.8,-728 1945.8,-722 1951.8,-722 1951.8,-722 1995.16,-722 1995.16,-722 2001.16,-722 2007.16,-728 2007.16,-734 2007.16,-734 2007.16,-746 2007.16,-746 2007.16,-752 2001.16,-758 1995.16,-758"/>
<text xml:space="preserve" text-anchor="middle" x="1973.48" y="-735.8" font-family="Arial" font-size="14.00" fill="#1f2937">isVisible</text>
</g>
<!-- EnhancedPageObserver&#45;&gt;isVisible -->
<g id="edge11" class="edge">
<title>EnhancedPageObserver&#45;&gt;isVisible</title>
<path fill="none" stroke="#9ca3af" d="M538.87,-578.34C609.2,-571.82 712.34,-564 802.59,-564 802.59,-564 802.59,-564 1562.39,-564 1695.64,-564 1738.48,-562.07 1855.94,-625 1896.06,-646.49 1931.58,-686.09 1952.57,-712.73"/>
<polygon fill="#9ca3af" stroke="#9ca3af" points="1958.62,-720.6 1948.96,-715.42 1956.31,-717.61 1952.52,-712.68 1952.52,-712.68 1952.52,-712.68 1956.31,-717.61 1956.09,-709.93 1958.62,-720.6"/>
</g>
<!-- READY_SELECTORS -->
<g id="node14" class="node">
<title>READY_SELECTORS</title>
<path fill="#f3f4f6" stroke="#4f46e5" d="M1627.8,-704C1627.8,-704 1494.98,-704 1494.98,-704 1488.98,-704 1482.98,-698 1482.98,-692 1482.98,-692 1482.98,-680 1482.98,-680 1482.98,-674 1488.98,-668 1494.98,-668 1494.98,-668 1627.8,-668 1627.8,-668 1633.8,-668 1639.8,-674 1639.8,-680 1639.8,-680 1639.8,-692 1639.8,-692 1639.8,-698 1633.8,-704 1627.8,-704"/>
<text xml:space="preserve" text-anchor="middle" x="1561.39" y="-681.8" font-family="Arial" font-size="14.00" fill="#1f2937">READY_SELECTORS</text>
</g>
<!-- EnhancedPageObserver&#45;&gt;READY_SELECTORS -->
<g id="edge12" class="edge">
<title>EnhancedPageObserver&#45;&gt;READY_SELECTORS</title>
<path fill="none" stroke="#9ca3af" d="M512.17,-605.49C580.47,-625.93 698.63,-656 802.59,-656 802.59,-656 802.59,-656 1201.58,-656 1293.89,-656 1399.09,-665.98 1471.6,-674.43"/>
<polygon fill="#9ca3af" stroke="#9ca3af" points="1481.29,-675.57 1470.84,-678.87 1477.54,-675.13 1471.36,-674.4 1471.36,-674.4 1471.36,-674.4 1477.54,-675.13 1471.89,-669.93 1481.29,-675.57"/>
</g>
<!-- rect -->
<g id="node15" class="node">
<title>rect</title>
<path fill="#f3f4f6" stroke="#4f46e5" d="M2133.02,-960C2133.02,-960 2103.02,-960 2103.02,-960 2097.02,-960 2091.02,-954 2091.02,-948 2091.02,-948 2091.02,-936 2091.02,-936 2091.02,-930 2097.02,-924 2103.02,-924 2103.02,-924 2133.02,-924 2133.02,-924 2139.02,-924 2145.02,-930 2145.02,-936 2145.02,-936 2145.02,-948 2145.02,-948 2145.02,-954 2139.02,-960 2133.02,-960"/>
<text xml:space="preserve" text-anchor="middle" x="2118.02" y="-937.8" font-family="Arial" font-size="14.00" fill="#1f2937">rect</text>
</g>
<!-- EnhancedPageObserver&#45;&gt;rect -->
<g id="edge13" class="edge">
<title>EnhancedPageObserver&#45;&gt;rect</title>
<path fill="none" stroke="#9ca3af" d="M467.75,-605.25C487.36,-631.9 527.71,-680.92 574.71,-705 633.68,-735.21 656.27,-719.4 721.67,-730 891.74,-757.56 934.61,-762.26 1104.82,-789 1307.39,-820.83 1355.33,-862 1560.39,-862 1560.39,-862 1560.39,-862 1766.87,-862 1883.88,-862 2017.48,-904.98 2080.49,-927.93"/>
<polygon fill="#9ca3af" stroke="#9ca3af" points="2089.55,-931.28 2078.61,-932.04 2086,-929.97 2080.17,-927.82 2080.17,-927.82 2080.17,-927.82 2086,-929.97 2081.73,-923.6 2089.55,-931.28"/>
</g>
<!-- style -->
<g id="node16" class="node">
<title>style</title>
<path fill="#f3f4f6" stroke="#4f46e5" d="M2133.02,-872C2133.02,-872 2103.02,-872 2103.02,-872 2097.02,-872 2091.02,-866 2091.02,-860 2091.02,-860 2091.02,-848 2091.02,-848 2091.02,-842 2097.02,-836 2103.02,-836 2103.02,-836 2133.02,-836 2133.02,-836 2139.02,-836 2145.02,-842 2145.02,-848 2145.02,-848 2145.02,-860 2145.02,-860 2145.02,-866 2139.02,-872 2133.02,-872"/>
<text xml:space="preserve" text-anchor="middle" x="2118.02" y="-849.8" font-family="Arial" font-size="14.00" fill="#1f2937">style</text>
</g>
<!-- EnhancedPageObserver&#45;&gt;style -->
<g id="edge14" class="edge">
<title>EnhancedPageObserver&#45;&gt;style</title>
<path fill="none" stroke="#9ca3af" d="M458.58,-568.79C468.28,-524.02 499.77,-408.21 574.71,-353 767.23,-211.16 880.46,-343.74 1104.82,-261 1288.1,-193.41 1294.58,-88.61 1482.98,-37 1642.85,6.79 1698.49,14.83 1855.94,-37 1960.41,-71.39 2000.99,-88.2 2055.02,-184 2118.13,-295.91 2118.56,-710.16 2117.43,-824.56"/>
<polygon fill="#9ca3af" stroke="#9ca3af" points="2117.32,-834.34 2112.94,-824.29 2117.37,-830.56 2117.44,-824.34 2117.44,-824.34 2117.44,-824.34 2117.37,-830.56 2121.93,-824.39 2117.32,-834.34"/>
</g>
<!-- state -->
<g id="node21" class="node">
<title>state</title>
<path fill="#f3f4f6" stroke="#4f46e5" d="M1028.17,-252C1028.17,-252 998.17,-252 998.17,-252 992.17,-252 986.17,-246 986.17,-240 986.17,-240 986.17,-228 986.17,-228 986.17,-222 992.17,-216 998.17,-216 998.17,-216 1028.17,-216 1028.17,-216 1034.17,-216 1040.17,-222 1040.17,-228 1040.17,-228 1040.17,-240 1040.17,-240 1040.17,-246 1034.17,-252 1028.17,-252"/>
<text xml:space="preserve" text-anchor="middle" x="1013.17" y="-229.8" font-family="Arial" font-size="14.00" fill="#1f2937">state</text>
</g>
<!-- syncPageState&#45;&gt;state -->
<g id="edge56" class="edge">
<title>syncPageState&#45;&gt;state</title>
<path fill="none" stroke="#9ca3af" d="M685.77,-237.43C764.35,-236.6 907.3,-235.1 974.88,-234.39"/>
<polygon fill="#9ca3af" stroke="#9ca3af" points="984.6,-234.29 974.65,-238.89 980.82,-234.33 974.6,-234.39 974.6,-234.39 974.6,-234.39 980.82,-234.33 974.55,-229.89 984.6,-234.29"/>
</g>
<!-- detectPageState -->
<g id="node27" class="node">
<title>detectPageState</title>
<path fill="#f3f4f6" stroke="#4f46e5" d="M1248.34,-298C1248.34,-298 1152.82,-298 1152.82,-298 1146.82,-298 1140.82,-292 1140.82,-286 1140.82,-286 1140.82,-274 1140.82,-274 1140.82,-268 1146.82,-262 1152.82,-262 1152.82,-262 1248.34,-262 1248.34,-262 1254.34,-262 1260.34,-268 1260.34,-274 1260.34,-274 1260.34,-286 1260.34,-286 1260.34,-292 1254.34,-298 1248.34,-298"/>
<text xml:space="preserve" text-anchor="middle" x="1200.58" y="-275.8" font-family="Arial" font-size="14.00" fill="#1f2937">detectPageState</text>
</g>
<!-- syncPageState&#45;&gt;detectPageState -->
<g id="edge57" class="edge">
<title>syncPageState&#45;&gt;detectPageState</title>
<path fill="none" stroke="#9ca3af" d="M685.66,-245.84C697.51,-247.38 710,-248.86 721.67,-250 866.37,-264.12 1036.41,-272.95 1129.63,-277.13"/>
<polygon fill="#9ca3af" stroke="#9ca3af" points="1139.4,-277.56 1129.21,-281.61 1135.62,-277.39 1129.41,-277.12 1129.41,-277.12 1129.41,-277.12 1135.62,-277.39 1129.61,-272.62 1139.4,-277.56"/>
</g>
<!-- notifyPageState -->
<g id="node28" class="node">
<title>notifyPageState</title>
<path fill="#f3f4f6" stroke="#4f46e5" d="M849.01,-144C849.01,-144 758.17,-144 758.17,-144 752.17,-144 746.17,-138 746.17,-132 746.17,-132 746.17,-120 746.17,-120 746.17,-114 752.17,-108 758.17,-108 758.17,-108 849.01,-108 849.01,-108 855.01,-108 861.01,-114 861.01,-120 861.01,-120 861.01,-132 861.01,-132 861.01,-138 855.01,-144 849.01,-144"/>
<text xml:space="preserve" text-anchor="middle" x="803.59" y="-121.8" font-family="Arial" font-size="14.00" fill="#1f2937">notifyPageState</text>
</g>
<!-- syncPageState&#45;&gt;notifyPageState -->
<g id="edge58" class="edge">
<title>syncPageState&#45;&gt;notifyPageState</title>
<path fill="none" stroke="#9ca3af" d="M673.14,-219.66C677.55,-217.03 681.82,-214.13 685.67,-211 705.8,-194.61 701.45,-181.28 721.67,-165 728.83,-159.24 736.98,-154.06 745.29,-149.5"/>
<polygon fill="#9ca3af" stroke="#9ca3af" points="753.98,-145 747.17,-153.6 750.62,-146.74 745.1,-149.6 745.1,-149.6 745.1,-149.6 750.62,-146.74 743.03,-145.6 753.98,-145"/>
</g>
<!-- notifyParentFrameState -->
<g id="node32" class="node">
<title>notifyParentFrameState</title>
<path fill="#f3f4f6" stroke="#4f46e5" d="M873.51,-210C873.51,-210 733.67,-210 733.67,-210 727.67,-210 721.67,-204 721.67,-198 721.67,-198 721.67,-186 721.67,-186 721.67,-180 727.67,-174 733.67,-174 733.67,-174 873.51,-174 873.51,-174 879.51,-174 885.51,-180 885.51,-186 885.51,-186 885.51,-198 885.51,-198 885.51,-204 879.51,-210 873.51,-210"/>
<text xml:space="preserve" text-anchor="middle" x="803.59" y="-187.8" font-family="Arial" font-size="14.00" fill="#1f2937">notifyParentFrameState</text>
</g>
<!-- syncPageState&#45;&gt;notifyParentFrameState -->
<g id="edge59" class="edge">
<title>syncPageState&#45;&gt;notifyParentFrameState</title>
<path fill="none" stroke="#9ca3af" d="M685.42,-223.45C697.45,-220.22 710.44,-216.73 723.24,-213.3"/>
<polygon fill="#9ca3af" stroke="#9ca3af" points="732.75,-210.74 724.26,-217.68 729.1,-211.72 723.09,-213.34 723.09,-213.34 723.09,-213.34 729.1,-211.72 721.92,-208.99 732.75,-210.74"/>
</g>
<!-- isAuthPage&#45;&gt;pathname -->
<g id="edge28" class="edge">
<title>isAuthPage&#45;&gt;pathname</title>
<path fill="none" stroke="#9ca3af" d="M1379.51,-298.25C1393.56,-333.28 1428.93,-410.23 1482.98,-453 1491.35,-459.62 1501.45,-464.68 1511.56,-468.52"/>
<polygon fill="#9ca3af" stroke="#9ca3af" points="1520.87,-471.71 1509.95,-472.73 1517.29,-470.48 1511.41,-468.47 1511.41,-468.47 1511.41,-468.47 1517.29,-470.48 1512.86,-464.21 1520.87,-471.71"/>
</g>
<!-- isAuthPage&#45;&gt;bodyText -->
<g id="edge29" class="edge">
<title>isAuthPage&#45;&gt;bodyText</title>
<path fill="none" stroke="#9ca3af" d="M1390.17,-261.83C1410.41,-242.21 1445.74,-212.01 1482.98,-199 1561.87,-171.43 1660.82,-175.73 1718.05,-181.66"/>
<polygon fill="#9ca3af" stroke="#9ca3af" points="1727.71,-182.72 1717.27,-186.1 1723.95,-182.31 1717.77,-181.63 1717.77,-181.63 1717.77,-181.63 1723.95,-182.31 1718.26,-177.15 1727.71,-182.72"/>
</g>
<!-- isAuthPage&#45;&gt;hasPasswordField -->
<g id="edge32" class="edge">
<title>isAuthPage&#45;&gt;hasPasswordField</title>
<path fill="none" stroke="#9ca3af" d="M1385.15,-298.33C1403.66,-324.21 1440.78,-371.39 1482.98,-399 1484.96,-400.3 1487.02,-401.54 1489.12,-402.73"/>
<polygon fill="#9ca3af" stroke="#9ca3af" points="1497.55,-407.06 1486.6,-406.49 1494.19,-405.33 1488.65,-402.49 1488.65,-402.49 1488.65,-402.49 1494.19,-405.33 1490.71,-398.49 1497.55,-407.06"/>
</g>
<!-- isAuthPage&#45;&gt;hasEmailField -->
<g id="edge33" class="edge">
<title>isAuthPage&#45;&gt;hasEmailField</title>
<path fill="none" stroke="#9ca3af" d="M1404.06,-298.24C1425.89,-310.62 1455.82,-327.05 1482.98,-340 1489.51,-343.11 1496.42,-346.22 1503.32,-349.22"/>
<polygon fill="#9ca3af" stroke="#9ca3af" points="1512.25,-353.02 1501.29,-353.24 1508.77,-351.54 1503.05,-349.1 1503.05,-349.1 1503.05,-349.1 1508.77,-351.54 1504.82,-344.96 1512.25,-353.02"/>
</g>
<!-- pattern -->
<g id="node20" class="node">
<title>pattern</title>
<path fill="#f3f4f6" stroke="#4f46e5" d="M1991.27,-229C1991.27,-229 1955.69,-229 1955.69,-229 1949.69,-229 1943.69,-223 1943.69,-217 1943.69,-217 1943.69,-205 1943.69,-205 1943.69,-199 1949.69,-193 1955.69,-193 1955.69,-193 1991.27,-193 1991.27,-193 1997.27,-193 2003.27,-199 2003.27,-205 2003.27,-205 2003.27,-217 2003.27,-217 2003.27,-223 1997.27,-229 1991.27,-229"/>
<text xml:space="preserve" text-anchor="middle" x="1973.48" y="-206.8" font-family="Arial" font-size="14.00" fill="#1f2937">pattern</text>
</g>
<!-- isAuthPage&#45;&gt;pattern -->
<g id="edge36" class="edge">
<title>isAuthPage&#45;&gt;pattern</title>
<path fill="none" stroke="#9ca3af" d="M1375.98,-261.58C1384.72,-219.18 1412.73,-115.01 1482.98,-72 1553.67,-28.72 1781.01,-33.56 1855.94,-69 1905.58,-92.48 1941.17,-148.61 1959.15,-182.85"/>
<polygon fill="#9ca3af" stroke="#9ca3af" points="1963.61,-191.63 1955.06,-184.75 1961.89,-188.26 1959.08,-182.72 1959.08,-182.72 1959.08,-182.72 1961.89,-188.26 1963.09,-180.68 1963.61,-191.63"/>
</g>
<!-- hasVisibleActionLabel -->
<g id="node22" class="node">
<title>hasVisibleActionLabel</title>
<path fill="#f3f4f6" stroke="#4f46e5" d="M1830.36,-321C1830.36,-321 1701.38,-321 1701.38,-321 1695.38,-321 1689.38,-315 1689.38,-309 1689.38,-309 1689.38,-297 1689.38,-297 1689.38,-291 1695.38,-285 1701.38,-285 1701.38,-285 1830.36,-285 1830.36,-285 1836.36,-285 1842.36,-291 1842.36,-297 1842.36,-297 1842.36,-309 1842.36,-309 1842.36,-315 1836.36,-321 1830.36,-321"/>
<text xml:space="preserve" text-anchor="middle" x="1765.87" y="-298.8" font-family="Arial" font-size="14.00" fill="#1f2937">hasVisibleActionLabel</text>
</g>
<!-- isAuthPage&#45;&gt;hasVisibleActionLabel -->
<g id="edge31" class="edge">
<title>isAuthPage&#45;&gt;hasVisibleActionLabel</title>
<path fill="none" stroke="#9ca3af" d="M1415.71,-293.08C1435.92,-298.56 1460.47,-304.29 1482.98,-307 1548.01,-314.84 1622.09,-313.39 1677.98,-310.22"/>
<polygon fill="#9ca3af" stroke="#9ca3af" points="1687.69,-309.64 1677.98,-314.73 1683.91,-309.87 1677.71,-310.24 1677.71,-310.24 1677.71,-310.24 1683.91,-309.87 1677.44,-305.75 1687.69,-309.64"/>
</g>
<!-- hasLoginCta -->
<g id="node23" class="node">
<title>hasLoginCta</title>
<path fill="#f3f4f6" stroke="#4f46e5" d="M1596.7,-298C1596.7,-298 1526.08,-298 1526.08,-298 1520.08,-298 1514.08,-292 1514.08,-286 1514.08,-286 1514.08,-274 1514.08,-274 1514.08,-268 1520.08,-262 1526.08,-262 1526.08,-262 1596.7,-262 1596.7,-262 1602.7,-262 1608.7,-268 1608.7,-274 1608.7,-274 1608.7,-286 1608.7,-286 1608.7,-292 1602.7,-298 1596.7,-298"/>
<text xml:space="preserve" text-anchor="middle" x="1561.39" y="-275.8" font-family="Arial" font-size="14.00" fill="#1f2937">hasLoginCta</text>
</g>
<!-- isAuthPage&#45;&gt;hasLoginCta -->
<g id="edge30" class="edge">
<title>isAuthPage&#45;&gt;hasLoginCta</title>
<path fill="none" stroke="#9ca3af" d="M1415.73,-280C1441.63,-280 1474.91,-280 1503.02,-280"/>
<polygon fill="#9ca3af" stroke="#9ca3af" points="1512.69,-280 1502.69,-284.5 1508.91,-280 1502.69,-280 1502.69,-280 1502.69,-280 1508.91,-280 1502.69,-275.5 1512.69,-280"/>
</g>
<!-- hasSocialAuthButton -->
<g id="node24" class="node">
<title>hasSocialAuthButton</title>
<path fill="#f3f4f6" stroke="#4f46e5" d="M1622.38,-244C1622.38,-244 1500.4,-244 1500.4,-244 1494.4,-244 1488.4,-238 1488.4,-232 1488.4,-232 1488.4,-220 1488.4,-220 1488.4,-214 1494.4,-208 1500.4,-208 1500.4,-208 1622.38,-208 1622.38,-208 1628.38,-208 1634.38,-214 1634.38,-220 1634.38,-220 1634.38,-232 1634.38,-232 1634.38,-238 1628.38,-244 1622.38,-244"/>
<text xml:space="preserve" text-anchor="middle" x="1561.39" y="-221.8" font-family="Arial" font-size="14.00" fill="#1f2937">hasSocialAuthButton</text>
</g>
<!-- isAuthPage&#45;&gt;hasSocialAuthButton -->
<g id="edge34" class="edge">
<title>isAuthPage&#45;&gt;hasSocialAuthButton</title>
<path fill="none" stroke="#9ca3af" d="M1415.73,-267.61C1436.38,-261.67 1461.73,-254.38 1485.4,-247.57"/>
<polygon fill="#9ca3af" stroke="#9ca3af" points="1494.97,-244.82 1486.6,-251.91 1491.34,-245.86 1485.36,-247.58 1485.36,-247.58 1485.36,-247.58 1491.34,-245.86 1484.12,-243.26 1494.97,-244.82"/>
</g>
<!-- matchedPatterns -->
<g id="node25" class="node">
<title>matchedPatterns</title>
<path fill="#f3f4f6" stroke="#4f46e5" d="M1610.31,-152C1610.31,-152 1512.47,-152 1512.47,-152 1506.47,-152 1500.47,-146 1500.47,-140 1500.47,-140 1500.47,-128 1500.47,-128 1500.47,-122 1506.47,-116 1512.47,-116 1512.47,-116 1610.31,-116 1610.31,-116 1616.31,-116 1622.31,-122 1622.31,-128 1622.31,-128 1622.31,-140 1622.31,-140 1622.31,-146 1616.31,-152 1610.31,-152"/>
<text xml:space="preserve" text-anchor="middle" x="1561.39" y="-129.8" font-family="Arial" font-size="14.00" fill="#1f2937">matchedPatterns</text>
</g>
<!-- isAuthPage&#45;&gt;matchedPatterns -->
<g id="edge35" class="edge">
<title>isAuthPage&#45;&gt;matchedPatterns</title>
<path fill="none" stroke="#9ca3af" d="M1386.5,-261.54C1405.78,-236.91 1442.89,-193.25 1482.98,-166 1487.6,-162.86 1492.57,-159.95 1497.69,-157.25"/>
<polygon fill="#9ca3af" stroke="#9ca3af" points="1506.56,-152.9 1499.57,-161.34 1503.17,-154.56 1497.59,-157.3 1497.59,-157.3 1497.59,-157.3 1503.17,-154.56 1495.6,-153.27 1506.56,-152.9"/>
</g>
<!-- AUTH_TEXT_PATTERNS -->
<g id="node26" class="node">
<title>AUTH_TEXT_PATTERNS</title>
<path fill="#f3f4f6" stroke="#4f46e5" d="M1843.94,-114C1843.94,-114 1687.8,-114 1687.8,-114 1681.8,-114 1675.8,-108 1675.8,-102 1675.8,-102 1675.8,-90 1675.8,-90 1675.8,-84 1681.8,-78 1687.8,-78 1687.8,-78 1843.94,-78 1843.94,-78 1849.94,-78 1855.94,-84 1855.94,-90 1855.94,-90 1855.94,-102 1855.94,-102 1855.94,-108 1849.94,-114 1843.94,-114"/>
<text xml:space="preserve" text-anchor="middle" x="1765.87" y="-91.8" font-family="Arial" font-size="14.00" fill="#1f2937">AUTH_TEXT_PATTERNS</text>
</g>
<!-- isAuthPage&#45;&gt;AUTH_TEXT_PATTERNS -->
<g id="edge37" class="edge">
<title>isAuthPage&#45;&gt;AUTH_TEXT_PATTERNS</title>
<path fill="none" stroke="#9ca3af" d="M1378.02,-261.67C1389.93,-224.7 1422.43,-141.76 1482.98,-107 1537.35,-75.79 1607.82,-73.04 1664.7,-78.09"/>
<polygon fill="#9ca3af" stroke="#9ca3af" points="1674.31,-79.04 1663.92,-82.54 1670.55,-78.67 1664.36,-78.06 1664.36,-78.06 1664.36,-78.06 1670.55,-78.67 1664.8,-73.58 1674.31,-79.04"/>
</g>
<!-- findChatInputElement&#45;&gt;elements -->
<g id="edge42" class="edge">
<title>findChatInputElement&#45;&gt;elements</title>
<path fill="none" stroke="#9ca3af" d="M1447.26,-618.58C1514.32,-627.21 1607.15,-641.7 1639.8,-659 1685.2,-683.05 1724.32,-729.33 1746.21,-758.88"/>
<polygon fill="#9ca3af" stroke="#9ca3af" points="1751.98,-766.85 1742.47,-761.39 1749.76,-763.79 1746.11,-758.75 1746.11,-758.75 1746.11,-758.75 1749.76,-763.79 1749.76,-756.11 1751.98,-766.85"/>
</g>
<!-- findChatInputElement&#45;&gt;visibleElement -->
<g id="edge43" class="edge">
<title>findChatInputElement&#45;&gt;visibleElement</title>
<path fill="none" stroke="#9ca3af" d="M1391.81,-628.07C1422.7,-657.19 1480.36,-711.42 1482.98,-713 1487.66,-715.83 1492.67,-718.41 1497.82,-720.76"/>
<polygon fill="#9ca3af" stroke="#9ca3af" points="1506.7,-724.53 1495.74,-724.77 1503.22,-723.05 1497.5,-720.63 1497.5,-720.63 1497.5,-720.63 1503.22,-723.05 1499.25,-716.48 1506.7,-724.53"/>
</g>
<!-- findChatInputElement&#45;&gt;isVisible -->
<g id="edge44" class="edge">
<title>findChatInputElement&#45;&gt;isVisible</title>
<path fill="none" stroke="#9ca3af" d="M1447.35,-606.68C1501.31,-605.77 1575.68,-607.55 1639.8,-620 1747.71,-640.95 1867.4,-691.29 1929.61,-719.66"/>
<polygon fill="#9ca3af" stroke="#9ca3af" points="1938.35,-723.68 1927.38,-723.59 1934.91,-722.1 1929.26,-719.5 1929.26,-719.5 1929.26,-719.5 1934.91,-722.1 1931.14,-715.41 1938.35,-723.68"/>
</g>
<!-- findChatInputElement&#45;&gt;READY_SELECTORS -->
<g id="edge45" class="edge">
<title>findChatInputElement&#45;&gt;READY_SELECTORS</title>
<path fill="none" stroke="#9ca3af" d="M1418.1,-628.4C1444.08,-638.92 1476.88,-652.19 1504.43,-663.35"/>
<polygon fill="#9ca3af" stroke="#9ca3af" points="1513.58,-667.05 1502.63,-667.47 1510.08,-665.63 1504.32,-663.3 1504.32,-663.3 1504.32,-663.3 1510.08,-665.63 1506,-659.13 1513.58,-667.05"/>
</g>
<!-- visibleElement&#45;&gt;elements -->
<g id="edge47" class="edge">
<title>visibleElement&#45;&gt;elements</title>
<path fill="none" stroke="#9ca3af" d="M1614.8,-751.91C1646.84,-759.18 1687.45,-768.41 1718.35,-775.43"/>
<polygon fill="#9ca3af" stroke="#9ca3af" points="1728.07,-777.64 1717.32,-779.81 1724.38,-776.8 1718.32,-775.42 1718.32,-775.42 1718.32,-775.42 1724.38,-776.8 1719.32,-771.04 1728.07,-777.64"/>
</g>
<!-- visibleElement&#45;&gt;isVisible -->
<g id="edge46" class="edge">
<title>visibleElement&#45;&gt;isVisible</title>
<path fill="none" stroke="#9ca3af" d="M1614.75,-740C1696.28,-740 1852.14,-740 1928.33,-740"/>
<polygon fill="#9ca3af" stroke="#9ca3af" points="1938.2,-740 1928.2,-744.5 1934.42,-740 1928.2,-740 1928.2,-740 1928.2,-740 1934.42,-740 1928.2,-735.5 1938.2,-740"/>
</g>
<!-- isVisible&#45;&gt;rect -->
<g id="edge24" class="edge">
<title>isVisible&#45;&gt;rect</title>
<path fill="none" stroke="#9ca3af" d="M1988.78,-758.49C2005.14,-779.81 2032.58,-816.03 2055.02,-848 2070.51,-870.08 2087.31,-895.66 2099.51,-914.55"/>
<polygon fill="#9ca3af" stroke="#9ca3af" points="2104.78,-922.75 2095.59,-916.77 2102.74,-919.57 2099.37,-914.34 2099.37,-914.34 2099.37,-914.34 2102.74,-919.57 2103.16,-911.9 2104.78,-922.75"/>
</g>
<!-- isVisible&#45;&gt;style -->
<g id="edge25" class="edge">
<title>isVisible&#45;&gt;style</title>
<path fill="none" stroke="#9ca3af" d="M1997.38,-758.32C2021.28,-777.43 2058.92,-807.53 2085.59,-828.86"/>
<polygon fill="#9ca3af" stroke="#9ca3af" points="2093.22,-834.97 2082.6,-832.24 2090.27,-832.61 2085.41,-828.72 2085.41,-828.72 2085.41,-828.72 2090.27,-832.61 2088.23,-825.21 2093.22,-834.97"/>
</g>
<!-- ChatStreamMonitor -->
<g id="node17" class="node">
<title>ChatStreamMonitor</title>
<path fill="#f3f4f6" stroke="#4f46e5" d="M860.28,-937C860.28,-937 746.9,-937 746.9,-937 740.9,-937 734.9,-931 734.9,-925 734.9,-925 734.9,-913 734.9,-913 734.9,-907 740.9,-901 746.9,-901 746.9,-901 860.28,-901 860.28,-901 866.28,-901 872.28,-907 872.28,-913 872.28,-913 872.28,-925 872.28,-925 872.28,-931 866.28,-937 860.28,-937"/>
<text xml:space="preserve" text-anchor="middle" x="803.59" y="-914.8" font-family="Arial" font-size="14.00" fill="#1f2937">ChatStreamMonitor</text>
</g>
<!-- ChatStreamMonitor&#45;&gt;constructor -->
<g id="edge15" class="edge">
<title>ChatStreamMonitor&#45;&gt;constructor</title>
<path fill="none" stroke="#9ca3af" d="M831.11,-900.72C854.25,-885.3 889.11,-863.36 921.51,-848 933.65,-842.25 947.11,-836.95 959.87,-832.39"/>
<polygon fill="#9ca3af" stroke="#9ca3af" points="969.22,-829.14 961.26,-836.67 965.65,-830.38 959.78,-832.42 959.78,-832.42 959.78,-832.42 965.65,-830.38 958.3,-828.17 969.22,-829.14"/>
</g>
<!-- ChatStreamMonitor&#45;&gt;elements -->
<g id="edge16" class="edge">
<title>ChatStreamMonitor&#45;&gt;elements</title>
<path fill="none" stroke="#9ca3af" d="M863.03,-900.56C881.58,-895.23 902.28,-889.83 921.51,-886 960.98,-878.14 1546.63,-810.94 1718.06,-791.34"/>
<polygon fill="#9ca3af" stroke="#9ca3af" points="1727.76,-790.23 1718.34,-795.84 1724.01,-790.66 1717.83,-791.37 1717.83,-791.37 1717.83,-791.37 1724.01,-790.66 1717.32,-786.9 1727.76,-790.23"/>
</g>
<!-- ChatStreamMonitor&#45;&gt;isVisible -->
<g id="edge20" class="edge">
<title>ChatStreamMonitor&#45;&gt;isVisible</title>
<path fill="none" stroke="#9ca3af" d="M872.69,-924.27C951.37,-929.89 1084.75,-938 1199.58,-938 1199.58,-938 1199.58,-938 1562.39,-938 1693.29,-938 1743.07,-980.3 1855.94,-914 1912.1,-881.01 1946.73,-808.98 1962.46,-768.7"/>
<polygon fill="#9ca3af" stroke="#9ca3af" points="1965.97,-759.39 1966.66,-770.33 1964.64,-762.93 1962.45,-768.74 1962.45,-768.74 1962.45,-768.74 1964.64,-762.93 1958.24,-767.16 1965.97,-759.39"/>
</g>
<!-- ChatStreamMonitor&#45;&gt;rect -->
<g id="edge22" class="edge">
<title>ChatStreamMonitor&#45;&gt;rect</title>
<path fill="none" stroke="#9ca3af" d="M810.05,-937.45C822.56,-976.02 857.26,-1064.79 921.51,-1103 1027.98,-1166.31 1075.71,-1122 1199.58,-1122 1199.58,-1122 1199.58,-1122 1766.87,-1122 1898.98,-1122 1949.6,-1128.62 2055.02,-1049 2081.17,-1029.25 2098.18,-995.02 2107.65,-970.59"/>
<polygon fill="#9ca3af" stroke="#9ca3af" points="2111.06,-961.29 2111.84,-972.23 2109.75,-964.84 2107.61,-970.68 2107.61,-970.68 2107.61,-970.68 2109.75,-964.84 2103.39,-969.13 2111.06,-961.29"/>
</g>
<!-- ChatStreamMonitor&#45;&gt;style -->
<g id="edge23" class="edge">
<title>ChatStreamMonitor&#45;&gt;style</title>
<path fill="none" stroke="#9ca3af" d="M872.63,-936.16C888.6,-939.78 905.59,-943.31 921.51,-946 1044.08,-966.69 1075.28,-976 1199.58,-976 1199.58,-976 1199.58,-976 1766.87,-976 1887.61,-976 2019.38,-910.51 2081.21,-875.5"/>
<polygon fill="#9ca3af" stroke="#9ca3af" points="2089.82,-870.56 2083.38,-879.44 2086.54,-872.44 2081.14,-875.54 2081.14,-875.54 2081.14,-875.54 2086.54,-872.44 2078.9,-871.63 2089.82,-870.56"/>
</g>
<!-- originalFetch -->
<g id="node18" class="node">
<title>originalFetch</title>
<path fill="#f3f4f6" stroke="#4f46e5" d="M1049.24,-1094C1049.24,-1094 977.09,-1094 977.09,-1094 971.09,-1094 965.09,-1088 965.09,-1082 965.09,-1082 965.09,-1070 965.09,-1070 965.09,-1064 971.09,-1058 977.09,-1058 977.09,-1058 1049.24,-1058 1049.24,-1058 1055.24,-1058 1061.24,-1064 1061.24,-1070 1061.24,-1070 1061.24,-1082 1061.24,-1082 1061.24,-1088 1055.24,-1094 1049.24,-1094"/>
<text xml:space="preserve" text-anchor="middle" x="1013.17" y="-1071.8" font-family="Arial" font-size="14.00" fill="#1f2937">originalFetch</text>
</g>
<!-- ChatStreamMonitor&#45;&gt;originalFetch -->
<g id="edge17" class="edge">
<title>ChatStreamMonitor&#45;&gt;originalFetch</title>
<path fill="none" stroke="#9ca3af" d="M816.24,-937.44C834.99,-965.64 874.56,-1019.31 921.51,-1049 931.5,-1055.32 943.04,-1060.22 954.46,-1063.99"/>
<polygon fill="#9ca3af" stroke="#9ca3af" points="963.71,-1066.8 952.84,-1068.2 960.09,-1065.71 954.14,-1063.9 954.14,-1063.9 954.14,-1063.9 960.09,-1065.71 955.45,-1059.59 963.71,-1066.8"/>
</g>
<!-- originalXHROpen -->
<g id="node19" class="node">
<title>originalXHROpen</title>
<path fill="#f3f4f6" stroke="#4f46e5" d="M1063.64,-1040C1063.64,-1040 962.69,-1040 962.69,-1040 956.69,-1040 950.69,-1034 950.69,-1028 950.69,-1028 950.69,-1016 950.69,-1016 950.69,-1010 956.69,-1004 962.69,-1004 962.69,-1004 1063.64,-1004 1063.64,-1004 1069.64,-1004 1075.64,-1010 1075.64,-1016 1075.64,-1016 1075.64,-1028 1075.64,-1028 1075.64,-1034 1069.64,-1040 1063.64,-1040"/>
<text xml:space="preserve" text-anchor="middle" x="1013.17" y="-1017.8" font-family="Arial" font-size="14.00" fill="#1f2937">originalXHROpen</text>
</g>
<!-- ChatStreamMonitor&#45;&gt;originalXHROpen -->
<g id="edge18" class="edge">
<title>ChatStreamMonitor&#45;&gt;originalXHROpen</title>
<path fill="none" stroke="#9ca3af" d="M831.11,-937.28C854.25,-952.7 889.11,-974.64 921.51,-990 928.67,-993.39 936.28,-996.62 943.94,-999.64"/>
<polygon fill="#9ca3af" stroke="#9ca3af" points="953.24,-1003.18 942.29,-1003.83 949.71,-1001.84 943.9,-999.62 943.9,-999.62 943.9,-999.62 949.71,-1001.84 945.5,-995.42 953.24,-1003.18"/>
</g>
<!-- ChatStreamMonitor&#45;&gt;pattern -->
<g id="edge19" class="edge">
<title>ChatStreamMonitor&#45;&gt;pattern</title>
<path fill="none" stroke="#9ca3af" d="M872.69,-913.73C951.37,-908.11 1084.75,-900 1199.58,-900 1199.58,-900 1199.58,-900 1562.39,-900 1698.47,-900 1764.49,-913.77 1855.94,-813 1895.32,-769.6 1953.18,-355.43 1968.59,-240.47"/>
<polygon fill="#9ca3af" stroke="#9ca3af" points="1969.9,-230.62 1973.04,-241.13 1969.4,-234.37 1968.58,-240.54 1968.58,-240.54 1968.58,-240.54 1969.4,-234.37 1964.12,-239.94 1969.9,-230.62"/>
</g>
<!-- ChatStreamMonitor&#45;&gt;state -->
<g id="edge21" class="edge">
<title>ChatStreamMonitor&#45;&gt;state</title>
<path fill="none" stroke="#9ca3af" d="M810.14,-900.68C838.63,-806.68 968.37,-378.53 1003.42,-262.87"/>
<polygon fill="#9ca3af" stroke="#9ca3af" points="1006.24,-253.54 1007.65,-264.42 1005.15,-257.16 1003.34,-263.12 1003.34,-263.12 1003.34,-263.12 1005.15,-257.16 999.04,-261.81 1006.24,-253.54"/>
</g>
<!-- state&#45;&gt;detectPageState -->
<g id="edge60" class="edge">
<title>state&#45;&gt;detectPageState</title>
<path fill="none" stroke="#9ca3af" d="M1040.34,-240.49C1063.55,-246.25 1098.54,-254.93 1129.81,-262.69"/>
<polygon fill="#9ca3af" stroke="#9ca3af" points="1139.5,-265.1 1128.71,-267.06 1135.83,-264.19 1129.8,-262.69 1129.8,-262.69 1129.8,-262.69 1135.83,-264.19 1130.88,-258.32 1139.5,-265.1"/>
</g>
<!-- hasVisibleActionLabel&#45;&gt;isVisible -->
<g id="edge27" class="edge">
<title>hasVisibleActionLabel&#45;&gt;isVisible</title>
<path fill="none" stroke="#9ca3af" d="M1775.57,-321.5C1807.79,-389.98 1920.42,-629.36 1959.22,-711.83"/>
<polygon fill="#9ca3af" stroke="#9ca3af" points="1963.37,-720.64 1955.04,-713.5 1961.76,-717.22 1959.11,-711.59 1959.11,-711.59 1959.11,-711.59 1961.76,-717.22 1963.18,-709.67 1963.37,-720.64"/>
</g>
<!-- hasVisibleActionLabel&#45;&gt;pattern -->
<g id="edge26" class="edge">
<title>hasVisibleActionLabel&#45;&gt;pattern</title>
<path fill="none" stroke="#9ca3af" d="M1807.98,-284.6C1844.46,-268.28 1897.39,-244.6 1933.28,-228.54"/>
<polygon fill="#9ca3af" stroke="#9ca3af" points="1942.26,-224.52 1934.97,-232.71 1938.81,-226.07 1933.13,-228.61 1933.13,-228.61 1933.13,-228.61 1938.81,-226.07 1931.3,-224.5 1942.26,-224.52"/>
</g>
<!-- hasLoginCta&#45;&gt;hasVisibleActionLabel -->
<g id="edge38" class="edge">
<title>hasLoginCta&#45;&gt;hasVisibleActionLabel</title>
<path fill="none" stroke="#9ca3af" d="M1609.1,-285.31C1629.56,-287.63 1654.27,-290.44 1677.92,-293.12"/>
<polygon fill="#9ca3af" stroke="#9ca3af" points="1687.84,-294.25 1677.39,-297.59 1684.08,-293.82 1677.9,-293.12 1677.9,-293.12 1677.9,-293.12 1684.08,-293.82 1678.41,-288.65 1687.84,-294.25"/>
</g>
<!-- matchedPatterns&#45;&gt;bodyText -->
<g id="edge39" class="edge">
<title>matchedPatterns&#45;&gt;bodyText</title>
<path fill="none" stroke="#9ca3af" d="M1622.59,-150.06C1653.05,-158.18 1689.48,-167.89 1717.85,-175.46"/>
<polygon fill="#9ca3af" stroke="#9ca3af" points="1727.52,-178.04 1716.69,-179.81 1723.86,-177.06 1717.85,-175.46 1717.85,-175.46 1717.85,-175.46 1723.86,-177.06 1719.01,-171.11 1727.52,-178.04"/>
</g>
<!-- matchedPatterns&#45;&gt;pattern -->
<g id="edge40" class="edge">
<title>matchedPatterns&#45;&gt;pattern</title>
<path fill="none" stroke="#9ca3af" d="M1622.63,-134.07C1682.63,-135.4 1776.94,-140.95 1855.94,-161 1882.65,-167.78 1911.1,-179.88 1933.21,-190.48"/>
<polygon fill="#9ca3af" stroke="#9ca3af" points="1942.11,-194.84 1931.15,-194.48 1938.71,-193.18 1933.13,-190.44 1933.13,-190.44 1933.13,-190.44 1938.71,-193.18 1935.11,-186.4 1942.11,-194.84"/>
</g>
<!-- matchedPatterns&#45;&gt;AUTH_TEXT_PATTERNS -->
<g id="edge41" class="edge">
<title>matchedPatterns&#45;&gt;AUTH_TEXT_PATTERNS</title>
<path fill="none" stroke="#9ca3af" d="M1622.59,-122.7C1635.88,-120.21 1650.3,-117.5 1664.69,-114.8"/>
<polygon fill="#9ca3af" stroke="#9ca3af" points="1674.47,-112.97 1665.47,-119.23 1670.75,-113.66 1664.64,-114.81 1664.64,-114.81 1664.64,-114.81 1670.75,-113.66 1663.81,-110.39 1674.47,-112.97"/>
</g>
<!-- detectPageState&#45;&gt;isAuthPage -->
<g id="edge48" class="edge">
<title>detectPageState&#45;&gt;isAuthPage</title>
<path fill="none" stroke="#9ca3af" d="M1260.71,-280C1278.85,-280 1298.7,-280 1316.48,-280"/>
<polygon fill="#9ca3af" stroke="#9ca3af" points="1326.32,-280 1316.32,-284.5 1322.54,-280 1316.32,-280 1316.32,-280 1316.32,-280 1322.54,-280 1316.32,-275.5 1326.32,-280"/>
</g>
<!-- detectPageState&#45;&gt;findChatInputElement -->
<g id="edge49" class="edge">
<title>detectPageState&#45;&gt;findChatInputElement</title>
<path fill="none" stroke="#9ca3af" d="M1210.91,-298.21C1238.97,-352.98 1322.72,-516.43 1356.4,-582.16"/>
<polygon fill="#9ca3af" stroke="#9ca3af" points="1360.8,-590.76 1352.24,-583.91 1359.08,-587.39 1356.24,-581.86 1356.24,-581.86 1356.24,-581.86 1359.08,-587.39 1360.25,-579.81 1360.8,-590.76"/>
</g>
<!-- notifyPageState&#45;&gt;state -->
<g id="edge51" class="edge">
<title>notifyPageState&#45;&gt;state</title>
<path fill="none" stroke="#9ca3af" d="M851.03,-144.34C862.85,-150.07 875.13,-157.01 885.51,-165 905,-179.99 900.89,-193.61 921.51,-207 937.56,-217.42 957.77,-223.94 975.03,-227.96"/>
<polygon fill="#9ca3af" stroke="#9ca3af" points="984.69,-230.01 973.97,-232.34 980.99,-229.22 974.91,-227.94 974.91,-227.94 974.91,-227.94 980.99,-229.22 975.84,-223.53 984.69,-230.01"/>
</g>
<!-- canUseRuntimeMessaging -->
<g id="node29" class="node">
<title>canUseRuntimeMessaging</title>
<path fill="#f3f4f6" stroke="#4f46e5" d="M1092.82,-144C1092.82,-144 933.51,-144 933.51,-144 927.51,-144 921.51,-138 921.51,-132 921.51,-132 921.51,-120 921.51,-120 921.51,-114 927.51,-108 933.51,-108 933.51,-108 1092.82,-108 1092.82,-108 1098.82,-108 1104.82,-114 1104.82,-120 1104.82,-120 1104.82,-132 1104.82,-132 1104.82,-138 1098.82,-144 1092.82,-144"/>
<text xml:space="preserve" text-anchor="middle" x="1013.17" y="-121.8" font-family="Arial" font-size="14.00" fill="#1f2937">canUseRuntimeMessaging</text>
</g>
<!-- notifyPageState&#45;&gt;canUseRuntimeMessaging -->
<g id="edge50" class="edge">
<title>notifyPageState&#45;&gt;canUseRuntimeMessaging</title>
<path fill="none" stroke="#9ca3af" d="M861.31,-126C876.47,-126 893.34,-126 910.14,-126"/>
<polygon fill="#9ca3af" stroke="#9ca3af" points="919.94,-126 909.94,-130.5 916.16,-126 909.94,-126 909.94,-126 909.94,-126 916.16,-126 909.94,-121.5 919.94,-126"/>
</g>
<!-- lastPageState -->
<g id="node30" class="node">
<title>lastPageState</title>
<path fill="#f3f4f6" stroke="#4f46e5" d="M1052.75,-90C1052.75,-90 973.58,-90 973.58,-90 967.58,-90 961.58,-84 961.58,-78 961.58,-78 961.58,-66 961.58,-66 961.58,-60 967.58,-54 973.58,-54 973.58,-54 1052.75,-54 1052.75,-54 1058.75,-54 1064.75,-60 1064.75,-66 1064.75,-66 1064.75,-78 1064.75,-78 1064.75,-84 1058.75,-90 1052.75,-90"/>
<text xml:space="preserve" text-anchor="middle" x="1013.17" y="-67.8" font-family="Arial" font-size="14.00" fill="#1f2937">lastPageState</text>
</g>
<!-- notifyPageState&#45;&gt;lastPageState -->
<g id="edge52" class="edge">
<title>notifyPageState&#45;&gt;lastPageState</title>
<path fill="none" stroke="#9ca3af" d="M861.31,-111.24C888.98,-104.04 922.32,-95.37 950.61,-88.01"/>
<polygon fill="#9ca3af" stroke="#9ca3af" points="960.01,-85.57 951.46,-92.44 956.35,-86.52 950.33,-88.09 950.33,-88.09 950.33,-88.09 956.35,-86.52 949.2,-83.73 960.01,-85.57"/>
</g>
<!-- pageContext -->
<g id="node31" class="node">
<title>pageContext</title>
<path fill="#f3f4f6" stroke="#4f46e5" d="M1048.86,-36C1048.86,-36 977.47,-36 977.47,-36 971.47,-36 965.47,-30 965.47,-24 965.47,-24 965.47,-12 965.47,-12 965.47,-6 971.47,0 977.47,0 977.47,0 1048.86,0 1048.86,0 1054.86,0 1060.86,-6 1060.86,-12 1060.86,-12 1060.86,-24 1060.86,-24 1060.86,-30 1054.86,-36 1048.86,-36"/>
<text xml:space="preserve" text-anchor="middle" x="1013.17" y="-13.8" font-family="Arial" font-size="14.00" fill="#1f2937">pageContext</text>
</g>
<!-- notifyPageState&#45;&gt;pageContext -->
<g id="edge53" class="edge">
<title>notifyPageState&#45;&gt;pageContext</title>
<path fill="none" stroke="#9ca3af" d="M826.56,-107.59C849.13,-89.47 885.9,-62.1 921.51,-45 931.83,-40.04 943.26,-35.79 954.42,-32.21"/>
<polygon fill="#9ca3af" stroke="#9ca3af" points="963.82,-29.35 955.57,-36.56 960.21,-30.45 954.26,-32.26 954.26,-32.26 954.26,-32.26 960.21,-30.45 952.95,-27.95 963.82,-29.35"/>
</g>
<!-- notifyParentFrameState&#45;&gt;state -->
<g id="edge54" class="edge">
<title>notifyParentFrameState&#45;&gt;state</title>
<path fill="none" stroke="#9ca3af" d="M885.74,-208.42C916.7,-214.68 950.49,-221.52 975.34,-226.55"/>
<polygon fill="#9ca3af" stroke="#9ca3af" points="984.89,-228.48 974.2,-230.91 981.18,-227.73 975.09,-226.5 975.09,-226.5 975.09,-226.5 981.18,-227.73 975.98,-222.09 984.89,-228.48"/>
</g>
<!-- lastParentFrameState -->
<g id="node33" class="node">
<title>lastParentFrameState</title>
<path fill="#f3f4f6" stroke="#4f46e5" d="M1077.25,-198C1077.25,-198 949.08,-198 949.08,-198 943.08,-198 937.08,-192 937.08,-186 937.08,-186 937.08,-174 937.08,-174 937.08,-168 943.08,-162 949.08,-162 949.08,-162 1077.25,-162 1077.25,-162 1083.25,-162 1089.25,-168 1089.25,-174 1089.25,-174 1089.25,-186 1089.25,-186 1089.25,-192 1083.25,-198 1077.25,-198"/>
<text xml:space="preserve" text-anchor="middle" x="1013.17" y="-175.8" font-family="Arial" font-size="14.00" fill="#1f2937">lastParentFrameState</text>
</g>
<!-- notifyParentFrameState&#45;&gt;lastParentFrameState -->
<g id="edge55" class="edge">
<title>notifyParentFrameState&#45;&gt;lastParentFrameState</title>
<path fill="none" stroke="#9ca3af" d="M885.74,-187.31C898.88,-186.55 912.54,-185.76 925.81,-184.99"/>
<polygon fill="#9ca3af" stroke="#9ca3af" points="935.62,-184.43 925.9,-189.49 931.85,-184.64 925.64,-185 925.64,-185 925.64,-185 931.85,-184.64 925.38,-180.51 935.62,-184.43"/>
</g>
<!-- schedulePageStateSync -->
<g id="node34" class="node">
<title>schedulePageStateSync</title>
<path fill="#f3f4f6" stroke="#4f46e5" d="M526.33,-229C526.33,-229 381.78,-229 381.78,-229 375.78,-229 369.78,-223 369.78,-217 369.78,-217 369.78,-205 369.78,-205 369.78,-199 375.78,-193 381.78,-193 381.78,-193 526.33,-193 526.33,-193 532.33,-193 538.33,-199 538.33,-205 538.33,-205 538.33,-217 538.33,-217 538.33,-223 532.33,-229 526.33,-229"/>
<text xml:space="preserve" text-anchor="middle" x="454.05" y="-206.8" font-family="Arial" font-size="14.00" fill="#1f2937">schedulePageStateSync</text>
</g>
<!-- schedulePageStateSync&#45;&gt;syncPageState -->
<g id="edge62" class="edge">
<title>schedulePageStateSync&#45;&gt;syncPageState</title>
<path fill="none" stroke="#9ca3af" d="M538.81,-223.99C547.19,-225.29 555.62,-226.59 563.78,-227.86"/>
<polygon fill="#9ca3af" stroke="#9ca3af" points="573.5,-229.36 562.93,-232.28 569.76,-228.79 563.62,-227.83 563.62,-227.83 563.62,-227.83 569.76,-228.79 564.31,-223.39 573.5,-229.36"/>
</g>
<!-- syncScheduled -->
<g id="node35" class="node">
<title>syncScheduled</title>
<path fill="#f3f4f6" stroke="#4f46e5" d="M673.67,-202C673.67,-202 586.71,-202 586.71,-202 580.71,-202 574.71,-196 574.71,-190 574.71,-190 574.71,-178 574.71,-178 574.71,-172 580.71,-166 586.71,-166 586.71,-166 673.67,-166 673.67,-166 679.67,-166 685.67,-172 685.67,-178 685.67,-178 685.67,-190 685.67,-190 685.67,-196 679.67,-202 673.67,-202"/>
<text xml:space="preserve" text-anchor="middle" x="630.19" y="-179.8" font-family="Arial" font-size="14.00" fill="#1f2937">syncScheduled</text>
</g>
<!-- schedulePageStateSync&#45;&gt;syncScheduled -->
<g id="edge61" class="edge">
<title>schedulePageStateSync&#45;&gt;syncScheduled</title>
<path fill="none" stroke="#9ca3af" d="M538.81,-198.01C547.19,-196.71 555.62,-195.41 563.78,-194.14"/>
<polygon fill="#9ca3af" stroke="#9ca3af" points="573.5,-192.64 564.31,-198.61 569.76,-193.21 563.62,-194.17 563.62,-194.17 563.62,-194.17 569.76,-193.21 562.93,-189.72 573.5,-192.64"/>
</g>
<!-- setupMessageHandlers -->
<g id="node36" class="node">
<title>setupMessageHandlers</title>
<path fill="#f3f4f6" stroke="#4f46e5" d="M2043.02,-1040C2043.02,-1040 1903.94,-1040 1903.94,-1040 1897.94,-1040 1891.94,-1034 1891.94,-1028 1891.94,-1028 1891.94,-1016 1891.94,-1016 1891.94,-1010 1897.94,-1004 1903.94,-1004 1903.94,-1004 2043.02,-1004 2043.02,-1004 2049.02,-1004 2055.02,-1010 2055.02,-1016 2055.02,-1016 2055.02,-1028 2055.02,-1028 2055.02,-1034 2049.02,-1040 2043.02,-1040"/>
<text xml:space="preserve" text-anchor="middle" x="1973.48" y="-1017.8" font-family="Arial" font-size="14.00" fill="#1f2937">setupMessageHandlers</text>
</g>
<!-- setupMessageHandlers&#45;&gt;rect -->
<g id="edge63" class="edge">
<title>setupMessageHandlers&#45;&gt;rect</title>
<path fill="none" stroke="#9ca3af" d="M2027.04,-1003.6C2036.58,-999.57 2046.26,-995 2055.02,-990 2066.25,-983.6 2077.67,-975.34 2087.61,-967.49"/>
<polygon fill="#9ca3af" stroke="#9ca3af" points="2095.32,-961.22 2090.39,-971.02 2092.38,-963.61 2087.56,-967.53 2087.56,-967.53 2087.56,-967.53 2092.38,-963.61 2084.72,-964.04 2095.32,-961.22"/>
</g>
<!-- setupMessageHandlers&#45;&gt;style -->
<g id="edge64" class="edge">
<title>setupMessageHandlers&#45;&gt;style</title>
<path fill="none" stroke="#9ca3af" d="M2035.6,-1003.7C2042.66,-999.92 2049.35,-995.39 2055.02,-990 2059.22,-986 2087.77,-921.32 2104.62,-882.62"/>
<polygon fill="#9ca3af" stroke="#9ca3af" points="2108.55,-873.58 2108.69,-884.55 2107.05,-877.05 2104.57,-882.75 2104.57,-882.75 2104.57,-882.75 2107.05,-877.05 2100.44,-880.96 2108.55,-873.58"/>
</g>
<!-- ensureEventBusAndInit -->
<g id="node37" class="node">
<title>ensureEventBusAndInit</title>
<path fill="#f3f4f6" stroke="#4f46e5" d="M150.32,-891C150.32,-891 12,-891 12,-891 6,-891 0,-885 0,-879 0,-879 0,-867 0,-867 0,-861 6,-855 12,-855 12,-855 150.32,-855 150.32,-855 156.32,-855 162.32,-861 162.32,-867 162.32,-867 162.32,-879 162.32,-879 162.32,-885 156.32,-891 150.32,-891"/>
<text xml:space="preserve" text-anchor="middle" x="81.16" y="-868.8" font-family="Arial" font-size="14.00" fill="#1f2937">ensureEventBusAndInit</text>
</g>
<!-- ensureEventBusAndInit&#45;&gt;EnhancedPageObserver -->
<g id="edge67" class="edge">
<title>ensureEventBusAndInit&#45;&gt;EnhancedPageObserver</title>
<path fill="none" stroke="#9ca3af" d="M144.95,-854.62C150.97,-852.04 156.86,-849.17 162.32,-846 275.59,-780.19 383.97,-665.6 429.96,-613.79"/>
<polygon fill="#9ca3af" stroke="#9ca3af" points="436.5,-606.37 433.26,-616.85 434,-609.21 429.89,-613.87 429.89,-613.87 429.89,-613.87 434,-609.21 426.51,-610.9 436.5,-606.37"/>
</g>
<!-- ensureEventBusAndInit&#45;&gt;ChatStreamMonitor -->
<g id="edge69" class="edge">
<title>ensureEventBusAndInit&#45;&gt;ChatStreamMonitor</title>
<path fill="none" stroke="#9ca3af" d="M162.7,-878.14C301.86,-887.03 585.61,-905.15 723.64,-913.96"/>
<polygon fill="#9ca3af" stroke="#9ca3af" points="733.32,-914.58 723.05,-918.43 729.54,-914.34 723.34,-913.94 723.34,-913.94 723.34,-913.94 729.54,-914.34 723.62,-909.45 733.32,-914.58"/>
</g>
<!-- ensureEventBusAndInit&#45;&gt;setupMessageHandlers -->
<g id="edge65" class="edge">
<title>ensureEventBusAndInit&#45;&gt;setupMessageHandlers</title>
<path fill="none" stroke="#9ca3af" d="M93.33,-891.39C133.39,-954.73 276.78,-1160 453.05,-1160 453.05,-1160 453.05,-1160 1372.66,-1160 1576.43,-1160 1809.46,-1083.42 1915.08,-1044.36"/>
<polygon fill="#9ca3af" stroke="#9ca3af" points="1924.37,-1040.89 1916.57,-1048.6 1920.82,-1042.22 1915,-1044.39 1915,-1044.39 1915,-1044.39 1920.82,-1042.22 1913.43,-1040.17 1924.37,-1040.89"/>
</g>
<!-- enhancedObserver -->
<g id="node38" class="node">
<title>enhancedObserver</title>
<path fill="#f3f4f6" stroke="#4f46e5" d="M321.39,-660C321.39,-660 210.32,-660 210.32,-660 204.32,-660 198.32,-654 198.32,-648 198.32,-648 198.32,-636 198.32,-636 198.32,-630 204.32,-624 210.32,-624 210.32,-624 321.39,-624 321.39,-624 327.39,-624 333.39,-630 333.39,-636 333.39,-636 333.39,-648 333.39,-648 333.39,-654 327.39,-660 321.39,-660"/>
<text xml:space="preserve" text-anchor="middle" x="265.85" y="-637.8" font-family="Arial" font-size="14.00" fill="#1f2937">enhancedObserver</text>
</g>
<!-- ensureEventBusAndInit&#45;&gt;enhancedObserver -->
<g id="edge66" class="edge">
<title>ensureEventBusAndInit&#45;&gt;enhancedObserver</title>
<path fill="none" stroke="#9ca3af" d="M152.23,-854.54C155.9,-852.04 159.3,-849.21 162.32,-846 204.79,-800.7 167.79,-765.08 198.32,-711 207.44,-694.83 221.25,-679.65 233.93,-667.67"/>
<polygon fill="#9ca3af" stroke="#9ca3af" points="241.13,-661.1 236.78,-671.16 238.34,-663.65 233.74,-667.84 233.74,-667.84 233.74,-667.84 238.34,-663.65 230.71,-664.51 241.13,-661.1"/>
</g>
<!-- chatMonitor -->
<g id="node39" class="node">
<title>chatMonitor</title>
<path fill="#f3f4f6" stroke="#4f46e5" d="M298.43,-937C298.43,-937 233.28,-937 233.28,-937 227.28,-937 221.28,-931 221.28,-925 221.28,-925 221.28,-913 221.28,-913 221.28,-907 227.28,-901 233.28,-901 233.28,-901 298.43,-901 298.43,-901 304.43,-901 310.43,-907 310.43,-913 310.43,-913 310.43,-925 310.43,-925 310.43,-931 304.43,-937 298.43,-937"/>
<text xml:space="preserve" text-anchor="middle" x="265.85" y="-914.8" font-family="Arial" font-size="14.00" fill="#1f2937">chatMonitor</text>
</g>
<!-- ensureEventBusAndInit&#45;&gt;chatMonitor -->
<g id="edge68" class="edge">
<title>ensureEventBusAndInit&#45;&gt;chatMonitor</title>
<path fill="none" stroke="#9ca3af" d="M155.41,-891.44C173.83,-896.08 193.27,-900.98 210.57,-905.33"/>
<polygon fill="#9ca3af" stroke="#9ca3af" points="219.85,-907.67 209.06,-909.59 216.19,-906.75 210.16,-905.23 210.16,-905.23 210.16,-905.23 216.19,-906.75 211.26,-900.86 219.85,-907.67"/>
</g>
<!-- enhancedObserver&#45;&gt;EnhancedPageObserver -->
<g id="edge70" class="edge">
<title>enhancedObserver&#45;&gt;EnhancedPageObserver</title>
<path fill="none" stroke="#9ca3af" d="M329.37,-623.53C345.73,-618.7 363.51,-613.45 380.35,-608.47"/>
<polygon fill="#9ca3af" stroke="#9ca3af" points="389.53,-605.76 381.21,-612.91 385.9,-606.83 379.94,-608.6 379.94,-608.6 379.94,-608.6 385.9,-606.83 378.66,-604.28 389.53,-605.76"/>
</g>
<!-- chatMonitor&#45;&gt;ChatStreamMonitor -->
<g id="edge71" class="edge">
<title>chatMonitor&#45;&gt;ChatStreamMonitor</title>
<path fill="none" stroke="#9ca3af" d="M310.7,-919C401.03,-919 608.98,-919 723.45,-919"/>
<polygon fill="#9ca3af" stroke="#9ca3af" points="733.35,-919 723.35,-923.5 729.57,-919 723.35,-919 723.35,-919 723.35,-919 729.57,-919 723.35,-914.5 733.35,-919"/>
</g>
</g>
</svg>
